<svg width="75" height="75" viewBox="0 0 75 75" fill="none" xmlns="http://www.w3.org/2000/svg">
<path d="M18.5 1L35.3875 10.75V30.25L18.5 40L1.6125 30.25V10.75L18.5 1Z" fill="#F1F1F1"/>
<circle cx="60.8462" cy="18.8846" r="6.34615" fill="#2F2C2C"/>
<path fill-rule="evenodd" clip-rule="evenodd" d="M27.563 23.5729L20.2308 17.6155L19.0302 19.0931L26.3971 25.0787C26.7517 24.5501 27.1414 24.047 27.563 23.5729ZM49.4185 24.8102C49.7839 25.3285 50.115 25.8729 50.4084 26.4399L56.665 23.103L55.7691 21.4232L49.4185 24.8102ZM50.341 39.3812C50.0421 39.9444 49.7058 40.4848 49.3354 40.9989L62.3286 49.6611L63.3847 48.077L50.341 39.3812ZM34.6119 46.3938C33.9892 46.2386 33.383 46.0415 32.7966 45.8058L26.0786 62.6007L27.8463 63.3078L34.6119 46.3938ZM24.8032 37.4147C24.5971 36.8193 24.4301 36.2056 24.3054 35.5767L12.1538 38.6146L12.6156 40.4616L24.8032 37.4147Z" fill="#2F2C2C"/>
<circle cx="38.0002" cy="32.8462" r="11.4231" fill="#E2401B"/>
<circle cx="64.6538" cy="49.3462" r="6.34615" fill="#2F2C2C"/>
<circle cx="27.8462" cy="63.3077" r="6.34615" fill="#2F2C2C"/>
<circle cx="11.3462" cy="39.1923" r="6.34615" fill="#2F2C2C"/>
<circle cx="17.6923" cy="16.3462" r="6.34615" fill="#2F2C2C"/>
</svg>
