<svg width="225" height="29" viewBox="0 0 225 29" fill="none" xmlns="http://www.w3.org/2000/svg">
<g clip-path="url(#clip0_402_45773)">
<path d="M28.7301 5.31587C27.5953 5.29149 26.4687 5.51064 25.4287 5.95808C24.3886 6.40552 23.4601 7.07051 22.7076 7.90684V7.90684C21.1192 9.62209 20.3177 11.8874 20.3177 14.6557C20.3177 17.3624 21.1486 19.5553 22.7848 21.1693C24.4209 22.7832 26.5608 23.6119 29.1419 23.6119C30.7148 23.6477 32.2726 23.3035 33.679 22.6095C34.9585 21.9436 35.8409 21.2561 36.3079 20.5649V20.5432L34.2673 16.7762V16.7545H33.9915V16.7762C33.4974 17.5508 32.8167 18.1934 32.0097 18.647C31.1548 19.1797 30.1647 19.4644 29.1529 19.4685C28.1078 19.4901 27.0955 19.1083 26.3328 18.4046C25.9636 18.0725 25.6696 17.6676 25.47 17.2161C25.2705 16.7647 25.1698 16.277 25.1747 15.7847H37.1829L37.216 14.4892C37.216 11.7897 36.3998 9.56057 34.793 7.86341C34.026 7.0372 33.0879 6.38232 32.0421 5.94288C30.9963 5.50344 29.8669 5.28964 28.7301 5.31587ZM32.4804 12.5532H25.2372C25.4265 11.7576 25.8231 11.0243 26.388 10.4254C26.7008 10.0927 27.0836 9.83131 27.5098 9.65942C27.9359 9.48753 28.395 9.40934 28.8551 9.4303C29.3274 9.4136 29.7979 9.49669 30.2349 9.67396C30.6719 9.85123 31.0652 10.1186 31.3884 10.458C31.9658 11.027 32.3476 11.7597 32.4804 12.5532V12.5532Z" fill="#E14226"/>
<path d="M51.7208 7.48707C51.2148 6.79824 50.5322 6.25382 49.7427 5.90933C48.8993 5.5156 47.9774 5.31164 47.0439 5.31225C45.9243 5.2814 44.8122 5.50269 43.7927 5.95925C42.7732 6.41581 41.8731 7.09557 41.1612 7.94664C39.6905 9.69446 38.933 11.9272 38.933 14.5579C38.933 17.1887 39.65 19.3889 41.0656 21.0715C42.4811 22.7542 44.4592 23.6046 46.9483 23.6046C48.0666 23.633 49.1742 23.3841 50.1692 22.8809C51.0342 22.4326 51.7587 21.7608 52.2649 20.9377H52.298L52.7319 23.2066V23.2464H56.2726V0.0145264H51.7208V7.48707ZM50.7023 10.9067C51.5105 11.9539 51.9261 13.2438 51.8789 14.5579C51.9319 15.8409 51.5085 17.099 50.6876 18.097C50.3043 18.5444 49.8229 18.9005 49.2798 19.1387C48.7366 19.3768 48.1457 19.4908 47.5513 19.4721C46.9671 19.5 46.3848 19.3866 45.8554 19.1418C45.326 18.897 44.8656 18.5284 44.5143 18.0681C43.7783 17.0443 43.4038 15.8113 43.4481 14.5579C43.4375 13.297 43.8227 12.0635 44.5511 11.0261C44.8728 10.5326 45.3181 10.1289 45.8442 9.85389C46.3703 9.57884 46.9595 9.44168 47.555 9.45563C48.1576 9.4358 48.7566 9.55584 49.3033 9.80604C49.8501 10.0562 50.3293 10.4296 50.7023 10.8959V10.9067Z" fill="#E14226"/>
<path d="M68.2441 5.31582C67.0659 5.27893 65.8988 5.54987 64.8615 6.10107C64.0396 6.54107 63.3585 7.19766 62.8944 7.99726H62.865L62.5819 5.68854H58.8831V29.0145H63.4092V21.2959H63.468C63.9689 22.003 64.6463 22.5713 65.4351 22.946C66.2934 23.3812 67.2455 23.6071 68.211 23.6046C69.2683 23.6415 70.3194 23.4312 71.2781 22.9908C72.2368 22.5505 73.0758 21.8927 73.7261 21.0715C75.0792 19.3852 75.7667 17.1959 75.7667 14.5579C75.7667 11.9199 75.0645 9.69441 73.6783 7.95021C73.051 7.11707 72.2306 6.44338 71.2854 5.98517C70.3403 5.52697 69.2976 5.29749 68.2441 5.31582V5.31582ZM71.2407 14.5615C71.2868 15.8262 70.8982 17.0693 70.1376 18.0897C69.8098 18.5281 69.38 18.8827 68.8842 19.1238C68.3884 19.3649 67.8411 19.4856 67.2882 19.4757C66.7286 19.4942 66.1722 19.3856 65.6622 19.1584C65.1521 18.9313 64.702 18.5916 64.3468 18.1657C63.6114 17.2936 63.2437 16.0814 63.2437 14.547C63.2437 13.0127 63.6114 11.7281 64.3284 10.8162C64.6725 10.3738 65.1189 10.0187 65.6305 9.78015C66.142 9.54163 66.704 9.42663 67.2698 9.44472C67.8376 9.43221 68.3993 9.56136 68.9027 9.82015C69.4061 10.0789 69.8347 10.459 70.1487 10.9248C70.8913 11.9888 71.2735 13.2565 71.2407 14.547V14.5615Z" fill="#E14226"/>
<path d="M89.97 7.07453C88.6169 5.89847 86.8521 5.30139 84.7269 5.30139C83.265 5.28659 81.8201 5.61141 80.5097 6.24948C79.249 6.87134 78.1668 7.79453 77.3624 8.93453V8.95986L79.5685 12.5785V12.6002H79.8553V12.5749C80.3385 11.6212 81.0533 10.7997 81.9363 10.183C82.7347 9.61761 83.6919 9.31034 84.6755 9.30363C85.3998 9.25712 86.1214 9.42743 86.7455 9.79215C86.9599 9.92962 87.1356 10.1181 87.2564 10.3401C87.3773 10.5621 87.4392 10.8105 87.4367 11.0623C87.4367 11.5255 87.1573 11.8729 86.58 12.1262C85.2999 12.5744 83.9856 12.9217 82.6496 13.1647C80.6715 13.5773 79.2339 14.2503 78.3735 15.184C77.495 16.1514 77.0301 17.4154 77.0756 18.7122C77.0756 20.2356 77.5499 21.4443 78.4912 22.3308C79.4324 23.2174 80.8296 23.6372 82.6606 23.6372C85.0983 23.6372 86.8484 22.7361 87.8669 20.9557H87.9L88.3559 23.2645H91.9959V12.0828C92.0143 9.9369 91.3267 8.25422 89.97 7.07453ZM86.2932 18.7845C85.4588 19.3501 84.464 19.6415 83.4511 19.6168C82.2084 19.6168 81.6127 19.1826 81.6127 18.2924C81.6117 18.0845 81.6581 17.8791 81.7485 17.6912C81.8388 17.5033 81.9709 17.3378 82.1348 17.2068C82.7045 16.8213 83.3535 16.5643 84.0357 16.4541C86.0653 16.0054 87.194 15.5458 87.4772 15.0465V16.8558C87.4845 17.5795 87.0911 18.2381 86.308 18.7845H86.2932Z" fill="#E14226"/>
<path d="M103.787 5.31588C102.734 5.30537 101.694 5.54757 100.758 6.02152C99.8577 6.47669 99.0965 7.15843 98.5515 7.99731H98.5221L98.239 5.6886H94.5512V23.2464H99.081V14.3625C99.0264 13.1 99.396 11.855 100.133 10.8199C100.475 10.3715 100.924 10.0123 101.44 9.77331C101.956 9.53431 102.523 9.42278 103.092 9.4484C105.059 9.4484 106.056 10.5883 106.056 12.8355V23.2355H110.586V11.4278C110.611 10.6154 110.468 9.8065 110.166 9.05009C109.864 8.29368 109.409 7.60557 108.828 7.02751C107.662 5.88039 105.968 5.31588 103.787 5.31588Z" fill="#E14226"/>
<path d="M125.487 7.487C124.981 6.79816 124.299 6.25374 123.509 5.90926C122.661 5.51502 121.734 5.31226 120.796 5.31579C119.676 5.28494 118.564 5.50623 117.545 5.96279C116.525 6.41935 115.625 7.09911 114.913 7.95018C113.442 9.698 112.685 11.9307 112.685 14.5615C112.685 17.1923 113.402 19.3924 114.817 21.0751C116.233 22.7578 118.211 23.6082 120.7 23.6082C121.819 23.6366 122.926 23.3877 123.921 22.8844C124.785 22.4351 125.51 21.7635 126.017 20.9412H126.05L126.484 23.2101V23.2499H130.021V0.0180664H125.487V7.487ZM124.473 10.8958C125.283 11.9418 125.701 13.2322 125.653 14.547C125.706 15.8306 125.281 17.0892 124.458 18.0861C124.075 18.5336 123.595 18.8899 123.052 19.1281C122.51 19.3662 121.919 19.4801 121.325 19.4612C120.741 19.489 120.159 19.3756 119.629 19.1309C119.1 18.8861 118.64 18.5175 118.288 18.0571C117.551 17.0341 117.176 15.8006 117.222 14.547C117.211 13.286 117.597 12.0526 118.325 11.0152C118.647 10.5217 119.092 10.118 119.618 9.84296C120.144 9.56791 120.733 9.43075 121.329 9.4447C121.932 9.42613 122.531 9.54787 123.077 9.80001C123.623 10.0521 124.102 10.4276 124.473 10.8958V10.8958Z" fill="#E14226"/>
<path d="M144.956 7.07446C143.603 5.8984 141.838 5.30132 139.713 5.30132C138.253 5.28766 136.811 5.61245 135.503 6.24941C134.242 6.87127 133.16 7.79446 132.355 8.93446V8.95979L134.562 12.5785V12.6002H134.845V12.5748C135.328 11.6212 136.043 10.7996 136.926 10.1829C137.724 9.61689 138.681 9.30956 139.665 9.30356C140.389 9.25705 141.111 9.42736 141.735 9.79208C141.949 9.92955 142.125 10.118 142.246 10.34C142.367 10.562 142.429 10.8104 142.426 11.0622C142.426 11.5254 142.147 11.8728 141.569 12.1261C140.289 12.5744 138.975 12.9216 137.639 13.1647C135.661 13.5772 134.223 14.2503 133.363 15.1839C132.483 16.151 132.017 17.4149 132.061 18.7121C132.061 20.2356 132.539 21.4442 133.481 22.3308C134.422 23.2173 135.819 23.6371 137.65 23.6371C140.088 23.6371 141.838 22.7361 142.856 20.9557H142.889L143.345 23.2644H146.985V12.0827C147 9.93683 146.312 8.25415 144.956 7.07446ZM141.279 18.7845C140.445 19.3501 139.45 19.6414 138.437 19.6168C137.194 19.6168 136.598 19.1825 136.598 18.2923C136.598 18.0848 136.644 17.8798 136.733 17.692C136.823 17.5042 136.954 17.3384 137.117 17.2067C137.688 16.822 138.338 16.5651 139.021 16.454C141.051 16.0053 142.18 15.5458 142.463 15.0464V16.8557C142.489 17.5795 142.073 18.2381 141.294 18.7845H141.279Z" fill="#E14226"/>
<path d="M15.0232 16.3093C14.6816 15.6957 14.3724 15.0652 14.0966 14.4203C15.1162 13.984 16.0346 13.3474 16.7954 12.5495C17.9842 11.4012 18.5786 9.77999 18.5786 7.68598C18.5786 5.26148 17.7722 3.37735 16.1593 2.03362C14.5369 0.685499 12.4691 -0.0314722 10.3464 0.0180271H0V23.1775H5.03714V14.8618H6.95273L8.12193 14.8329C8.55947 15.8714 9.52277 18.1548 10.089 19.3707L15.0232 16.3093ZM5.03714 4.6463H9.67352C11.9997 4.6463 13.164 5.57148 13.1664 7.42182C13.1664 9.40968 11.8673 10.4024 9.26908 10.4H5.03714V4.6463Z" fill="#E14226"/>
<path d="M20.2294 21.5202L18.9095 20.6011L13.4495 24.0822L15.3614 24.8132L18.6926 24.806L21.1082 23.1124L20.2294 21.5202Z" fill="#E14226"/>
<path d="M15.8615 17.6519L10.7986 20.7892L12.2215 22.9822L17.6079 19.6421L15.8615 17.6519Z" fill="#E14226"/>
</g>
<path d="M161.52 3.40002V23H166.168C172.804 23 175.828 19.948 175.828 13.116C175.828 6.34002 173.224 3.40002 166.364 3.40002H161.52ZM163.2 4.94002H166.448C172.524 4.94002 174.148 7.65602 174.148 13.116C174.148 18.296 172.216 21.46 166.28 21.46H163.2V4.94002Z" fill="#6B7077"/>
<path d="M185.859 6.98403C181.547 6.98403 178.775 10.82 178.775 15.384C178.775 20.004 181.351 23.336 185.887 23.336C190.423 23.336 192.915 20.032 192.915 15.384C192.915 10.792 190.171 6.98403 185.859 6.98403ZM185.859 8.38403C189.443 8.38403 191.375 11.604 191.375 15.384C191.375 19.08 189.443 21.852 185.887 21.852C182.331 21.852 180.315 19.052 180.315 15.384C180.315 11.632 182.275 8.38403 185.859 8.38403Z" fill="#6B7077"/>
<path d="M202.812 6.98403C198.5 6.98403 195.728 10.736 195.728 15.384C195.728 20.004 198.304 23.336 202.84 23.336C206.284 23.336 208.496 21.152 209.28 18.212L207.964 17.204H207.908C207.376 19.724 205.92 21.852 202.812 21.852C199.284 21.852 197.268 19.052 197.268 15.384C197.268 11.632 199.228 8.38403 202.784 8.38403C205.304 8.38403 206.816 10.064 207.656 12.304H207.712L208.916 11.212C208.16 9.25202 206.144 6.98403 202.812 6.98403Z" fill="#6B7077"/>
<path d="M216.913 6.98403C213.693 6.98403 211.985 9.02803 211.985 11.072C211.985 13.284 213.357 14.544 217.109 15.468C221.085 16.448 221.729 17.512 221.729 19.108C221.729 20.424 220.553 21.852 217.977 21.852C215.373 21.852 213.665 20.396 212.405 18.296H212.349L211.341 19.612C212.321 21.488 214.897 23.336 218.005 23.336C221.029 23.336 223.297 21.6 223.297 19.108C223.297 16.7 221.925 15.244 217.949 14.236C214.225 13.284 213.525 12.36 213.525 11.072C213.525 9.95203 214.393 8.38403 216.913 8.38403C219.265 8.38403 220.693 9.70003 221.701 11.408H221.757L222.709 10.148C221.897 8.74803 219.993 6.98403 216.913 6.98403Z" fill="#6B7077"/>
<defs>
<clipPath id="clip0_402_45773">
<rect width="147" height="29" fill="white"/>
</clipPath>
</defs>
</svg>
