<?xml version="1.0" encoding="utf-8"?>
<!-- Generator: Adobe Illustrator 26.3.1, SVG Export Plug-In . SVG Version: 6.00 Build 0)  -->
<svg version="1.1" id="Layer_1" xmlns="http://www.w3.org/2000/svg" xmlns:xlink="http://www.w3.org/1999/xlink" x="0px" y="0px"
	 viewBox="0 0 32 32" style="enable-background:new 0 0 32 32;" xml:space="preserve">
<style type="text/css">
	.st0{enable-background:new    ;}
	.st1{fill:#E14226;}
</style>
<g class="st0">
	<path class="st1" d="M23.45,22.68l-6.44,4.06l1.81,2.83l6.86-4.32L23.45,22.68z M20.75,17.33c0.75-0.38,1.42-0.85,2.02-1.43
		c1.75-1.69,2.63-3.94,2.63-6.73s-0.88-5.03-2.63-6.73s-4.19-2.54-7.33-2.54H3.14v29.9h7.6V18.45h2.62c0.29,0.7,1.89,4.58,2.75,6.46
		l6.28-3.96C21.49,19.33,20.94,17.88,20.75,17.33z M17.32,11.38c-0.54,0.56-1.34,0.83-2.39,0.83h-4.19V6.15h4.19
		c1.05,0,1.85,0.28,2.39,0.83c0.54,0.56,0.81,1.29,0.81,2.2S17.86,10.82,17.32,11.38z M27.33,26.5L20.38,31l2.44,0.95l4.24-0.01
		l3.07-2.19l-0.62-2.23L27.33,26.5z"/>
</g>
</svg>

