<svg width="147" height="29" viewBox="0 0 147 29" fill="none" xmlns="http://www.w3.org/2000/svg">
<g clip-path="url(#clip0_387_45747)">
<path d="M28.7301 5.31583C27.5953 5.29145 26.4687 5.51059 25.4287 5.95803C24.3886 6.40547 23.4601 7.07047 22.7076 7.90679V7.90679C21.1192 9.62204 20.3177 11.8873 20.3177 14.6556C20.3177 17.3624 21.1486 19.5553 22.7848 21.1692C24.4209 22.7831 26.5608 23.6118 29.1419 23.6118C30.7148 23.6476 32.2726 23.3035 33.679 22.6094C34.9585 21.9436 35.8409 21.2561 36.3079 20.5649V20.5432L34.2673 16.7761V16.7544H33.9915V16.7761C33.4974 17.5507 32.8167 18.1934 32.0097 18.647C31.1548 19.1796 30.1647 19.4643 29.1529 19.4684C28.1078 19.4901 27.0955 19.1082 26.3328 18.4045C25.9636 18.0725 25.6696 17.6675 25.47 17.2161C25.2705 16.7647 25.1698 16.2769 25.1747 15.7846H37.1829L37.216 14.4892C37.216 11.7896 36.3998 9.56052 34.793 7.86337C34.026 7.03715 33.0879 6.38228 32.0421 5.94284C30.9963 5.5034 29.8669 5.2896 28.7301 5.31583ZM32.4804 12.5532H25.2372C25.4265 11.7576 25.8231 11.0242 26.388 10.4254C26.7008 10.0927 27.0836 9.83127 27.5098 9.65938C27.9359 9.48749 28.395 9.40929 28.8551 9.43025C29.3274 9.41356 29.7979 9.49664 30.2349 9.67392C30.6719 9.85119 31.0652 10.1185 31.3884 10.458C31.9658 11.027 32.3476 11.7597 32.4804 12.5532V12.5532Z" fill="#E14226"/>
<path d="M51.7208 7.48703C51.2148 6.79819 50.5322 6.25377 49.7427 5.90929C48.8993 5.51555 47.9774 5.31159 47.0439 5.31221C45.9243 5.28135 44.8122 5.50265 43.7927 5.95921C42.7732 6.41577 41.8731 7.09552 41.1612 7.9466C39.6905 9.69441 38.933 11.9271 38.933 14.5579C38.933 17.1887 39.65 19.3888 41.0656 21.0715C42.4811 22.7542 44.4592 23.6046 46.9483 23.6046C48.0666 23.633 49.1742 23.3841 50.1692 22.8808C51.0342 22.4326 51.7587 21.7608 52.2649 20.9376H52.298L52.7319 23.2065V23.2463H56.2726V0.0144806H51.7208V7.48703ZM50.7023 10.9067C51.5105 11.9538 51.9261 13.2437 51.8789 14.5579C51.9319 15.8409 51.5085 17.0989 50.6876 18.097C50.3043 18.5444 49.8229 18.9005 49.2798 19.1386C48.7366 19.3768 48.1457 19.4908 47.5513 19.472C46.9671 19.4999 46.3848 19.3865 45.8554 19.1418C45.326 18.897 44.8656 18.5283 44.5143 18.068C43.7783 17.0443 43.4038 15.8112 43.4481 14.5579C43.4375 13.2969 43.8227 12.0635 44.5511 11.0261C44.8728 10.5326 45.3181 10.1289 45.8442 9.85385C46.3703 9.57879 46.9595 9.44164 47.555 9.45558C48.1576 9.43575 48.7566 9.55579 49.3033 9.80599C49.8501 10.0562 50.3293 10.4295 50.7023 10.8958V10.9067Z" fill="#E14226"/>
<path d="M68.2441 5.31582C67.0659 5.27893 65.8988 5.54987 64.8615 6.10107C64.0396 6.54107 63.3585 7.19766 62.8944 7.99726H62.865L62.5819 5.68854H58.8831V29.0145H63.4092V21.2959H63.468C63.9689 22.003 64.6463 22.5713 65.4351 22.946C66.2934 23.3812 67.2455 23.6071 68.211 23.6046C69.2683 23.6415 70.3194 23.4312 71.2781 22.9908C72.2368 22.5505 73.0758 21.8927 73.7261 21.0715C75.0792 19.3852 75.7667 17.1959 75.7667 14.5579C75.7667 11.9199 75.0645 9.69441 73.6783 7.95021C73.051 7.11707 72.2306 6.44338 71.2854 5.98517C70.3403 5.52697 69.2976 5.29749 68.2441 5.31582V5.31582ZM71.2407 14.5615C71.2868 15.8262 70.8982 17.0693 70.1376 18.0897C69.8098 18.5281 69.38 18.8827 68.8842 19.1238C68.3884 19.3649 67.8411 19.4856 67.2882 19.4757C66.7286 19.4942 66.1722 19.3856 65.6622 19.1584C65.1521 18.9313 64.702 18.5916 64.3468 18.1657C63.6114 17.2936 63.2437 16.0814 63.2437 14.547C63.2437 13.0127 63.6114 11.7281 64.3284 10.8162C64.6725 10.3738 65.1189 10.0187 65.6305 9.78015C66.142 9.54163 66.704 9.42663 67.2698 9.44472C67.8376 9.4322 68.3993 9.56136 68.9027 9.82015C69.4061 10.0789 69.8347 10.459 70.1487 10.9248C70.8913 11.9888 71.2735 13.2565 71.2407 14.547V14.5615Z" fill="#E14226"/>
<path d="M89.97 7.07449C88.6169 5.89842 86.8521 5.30134 84.7269 5.30134C83.265 5.28654 81.8201 5.61137 80.5097 6.24943C79.249 6.87129 78.1668 7.79448 77.3624 8.93448V8.95981L79.5685 12.5785V12.6002H79.8553V12.5749C80.3385 11.6212 81.0533 10.7996 81.9363 10.1829C82.7347 9.61757 83.6919 9.3103 84.6755 9.30359C85.3998 9.25708 86.1214 9.42738 86.7455 9.7921C86.9599 9.92957 87.1356 10.118 87.2564 10.34C87.3773 10.562 87.4392 10.8104 87.4367 11.0623C87.4367 11.5254 87.1573 11.8728 86.58 12.1261C85.2999 12.5744 83.9856 12.9217 82.6496 13.1647C80.6715 13.5772 79.2339 14.2503 78.3735 15.1839C77.495 16.1514 77.0301 17.4154 77.0756 18.7121C77.0756 20.2356 77.5499 21.4442 78.4912 22.3308C79.4324 23.2174 80.8296 23.6371 82.6606 23.6371C85.0983 23.6371 86.8484 22.7361 87.8669 20.9557H87.9L88.3559 23.2644H91.9959V12.0827C92.0143 9.93685 91.3267 8.25417 89.97 7.07449ZM86.2932 18.7845C85.4588 19.3501 84.464 19.6414 83.4511 19.6168C82.2084 19.6168 81.6127 19.1825 81.6127 18.2924C81.6117 18.0845 81.6581 17.879 81.7485 17.6912C81.8388 17.5033 81.9709 17.3378 82.1348 17.2068C82.7045 16.8213 83.3535 16.5643 84.0357 16.4541C86.0653 16.0054 87.194 15.5458 87.4772 15.0464V16.8557C87.4845 17.5795 87.0911 18.2381 86.3079 18.7845H86.2932Z" fill="#E14226"/>
<path d="M103.787 5.31582C102.734 5.30531 101.694 5.5475 100.758 6.02146C99.8577 6.47663 99.0965 7.15837 98.5515 7.99725H98.5221L98.239 5.68854H94.5512V23.2463H99.081V14.3625C99.0264 13.1 99.396 11.8549 100.133 10.8198C100.475 10.3715 100.924 10.0122 101.44 9.77325C101.956 9.53425 102.523 9.42272 103.092 9.44834C105.059 9.44834 106.056 10.5882 106.056 12.8354V23.2355H110.586V11.4277C110.611 10.6154 110.468 9.80644 110.166 9.05003C109.864 8.29362 109.409 7.60551 108.828 7.02745C107.662 5.88033 105.968 5.31582 103.787 5.31582Z" fill="#E14226"/>
<path d="M125.487 7.48703C124.981 6.79819 124.299 6.25377 123.509 5.90929C122.661 5.51505 121.734 5.31229 120.796 5.31583C119.676 5.28497 118.564 5.50627 117.545 5.96282C116.525 6.41938 115.625 7.09914 114.913 7.95021C113.442 9.69803 112.685 11.9307 112.685 14.5615C112.685 17.1923 113.402 19.3924 114.817 21.0751C116.233 22.7578 118.211 23.6082 120.7 23.6082C121.819 23.6366 122.926 23.3877 123.921 22.8845C124.785 22.4351 125.51 21.7636 126.017 20.9412H126.05L126.484 23.2101V23.2499H130.021V0.0180969H125.487V7.48703ZM124.473 10.8958C125.283 11.9418 125.701 13.2322 125.653 14.547C125.706 15.8307 125.281 17.0892 124.458 18.0861C124.075 18.5336 123.595 18.8899 123.052 19.1281C122.51 19.3663 121.919 19.4802 121.325 19.4612C120.741 19.4891 120.159 19.3757 119.629 19.1309C119.1 18.8861 118.64 18.5175 118.288 18.0572C117.551 17.0341 117.176 15.8006 117.222 14.547C117.211 13.2861 117.597 12.0526 118.325 11.0152C118.647 10.5217 119.092 10.118 119.618 9.84299C120.144 9.56794 120.733 9.43078 121.329 9.44473C121.932 9.42617 122.531 9.5479 123.077 9.80004C123.623 10.0522 124.102 10.4276 124.473 10.8958V10.8958Z" fill="#E14226"/>
<path d="M144.956 7.07449C143.603 5.89843 141.838 5.30135 139.713 5.30135C138.253 5.28769 136.811 5.61248 135.503 6.24944C134.242 6.8713 133.16 7.79449 132.355 8.93449V8.95982L134.562 12.5785V12.6002H134.845V12.5749C135.328 11.6212 136.043 10.7996 136.926 10.1829C137.724 9.61693 138.681 9.30959 139.665 9.30359C140.389 9.25709 141.111 9.42739 141.735 9.79211C141.949 9.92958 142.125 10.118 142.246 10.34C142.367 10.562 142.429 10.8104 142.426 11.0623C142.426 11.5255 142.147 11.8728 141.569 12.1262C140.289 12.5744 138.975 12.9217 137.639 13.1647C135.661 13.5772 134.223 14.2503 133.363 15.1839C132.483 16.151 132.017 17.4149 132.061 18.7121C132.061 20.2356 132.539 21.4442 133.481 22.3308C134.422 23.2174 135.819 23.6371 137.65 23.6371C140.088 23.6371 141.838 22.7361 142.856 20.9557H142.889L143.345 23.2644H146.985V12.0827C147 9.93686 146.312 8.25418 144.956 7.07449ZM141.279 18.7845C140.445 19.3501 139.45 19.6414 138.437 19.6168C137.194 19.6168 136.598 19.1826 136.598 18.2924C136.598 18.0849 136.644 17.8798 136.733 17.692C136.823 17.5042 136.954 17.3385 137.117 17.2068C137.688 16.8221 138.338 16.5652 139.021 16.4541C141.051 16.0054 142.18 15.5458 142.463 15.0464V16.8558C142.489 17.5795 142.073 18.2381 141.294 18.7845H141.279Z" fill="#E14226"/>
<path d="M15.0232 16.3093C14.6816 15.6957 14.3724 15.0652 14.0966 14.4204C15.1162 13.9841 16.0346 13.3474 16.7954 12.5495C17.9842 11.4012 18.5786 9.78002 18.5786 7.68602C18.5786 5.26151 17.7722 3.37738 16.1593 2.03365C14.5368 0.685529 12.4691 -0.0314417 10.3464 0.0180576H0V23.1775H5.03714V14.8618H6.95273L8.12193 14.8329C8.55947 15.8714 9.52277 18.1548 10.089 19.3707L15.0232 16.3093ZM5.03714 4.64633H9.67352C11.9997 4.64633 13.164 5.57151 13.1664 7.42185C13.1664 9.40971 11.8673 10.4024 9.26908 10.4H5.03714V4.64633Z" fill="#E14226"/>
<path d="M20.2294 21.5202L18.9095 20.6011L13.4495 24.0822L15.3614 24.8132L18.6926 24.806L21.1082 23.1124L20.2294 21.5202Z" fill="#E14226"/>
<path d="M15.8615 17.6519L10.7986 20.7892L12.2215 22.9822L17.6079 19.6421L15.8615 17.6519Z" fill="#E14226"/>
</g>
<defs>
<clipPath id="clip0_387_45747">
<rect width="147" height="29" fill="white"/>
</clipPath>
</defs>
</svg>
