<svg xmlns="http://www.w3.org/2000/svg" viewBox="0 0 125.01 144.24"><defs><style>.cls-1{fill:#b3b3b3;}</style></defs><g id="Layer_2" data-name="Layer 2"><g id="Layer_1-2" data-name="Layer 1"><path class="cls-1" d="M94.47,33.52H65.94a2,2,0,0,1-2-2V2a2,2,0,0,1,4,0V29.52H94.47a2,2,0,0,1,0,4Z"/><path class="cls-1" d="M78.28,118a20.23,20.23,0,0,1-19.22-14A20.19,20.19,0,1,1,84.5,117h0A20.15,20.15,0,0,1,78.28,118Zm5.6-2.89h0Zm-5.62-33.5A16.2,16.2,0,1,0,92.69,105.1,16.21,16.21,0,0,0,78.26,81.56Z"/><path d="M77.2,144.24H77a46.1,46.1,0,0,1-6.39-.62,6.37,6.37,0,0,1-5.15-6.55,7.91,7.91,0,0,0-4.34-7.42,8,8,0,0,0-8.13.62,6.78,6.78,0,0,1-8.74-.85,43,43,0,0,1-3.81-4.67,6.28,6.28,0,0,1,.83-8.16A8,8,0,0,0,37.08,103a6.46,6.46,0,0,1-5.34-6.41c.05-2.08.28-4.15.48-5.9l0-.1A6.7,6.7,0,0,1,38.68,85a8,8,0,0,0,6.5-12.56A6.46,6.46,0,0,1,46,64.17a38.83,38.83,0,0,1,4.61-4,6.49,6.49,0,0,1,8.38.68,8.07,8.07,0,0,0,13.58-4.39A6.57,6.57,0,0,1,78.89,51a49.57,49.57,0,0,1,6.22.5,6.34,6.34,0,0,1,5.37,6.55,8,8,0,0,0,12.77,6.49,6.42,6.42,0,0,1,8.51.49,41.39,41.39,0,0,1,4,4.67,6.24,6.24,0,0,1-.93,8.48,8.05,8.05,0,0,0,4.26,13.88h.2a6.42,6.42,0,0,1,5.69,6.3,37.11,37.11,0,0,1-.53,6.18,6.52,6.52,0,0,1-6.82,5.32,8,8,0,0,0-6.65,13,6.3,6.3,0,0,1-.52,8.49,38.16,38.16,0,0,1-4.73,4,6.57,6.57,0,0,1-8.6-1,8,8,0,0,0-8.39-2.2,8.1,8.1,0,0,0-5.47,6.58A6.17,6.17,0,0,1,77.2,144.24ZM57.53,124.83a12.3,12.3,0,0,1,5.37,1.24,12.07,12.07,0,0,1,6.54,11.18,2.38,2.38,0,0,0,1.88,2.44,42.08,42.08,0,0,0,5.81.55h.07a2.18,2.18,0,0,0,2.13-2,12,12,0,0,1,20.75-6.6,2.59,2.59,0,0,0,3.33.51,34.88,34.88,0,0,0,4.26-3.58,2.33,2.33,0,0,0,.2-3.17,12,12,0,0,1,10-19.49,2.5,2.5,0,0,0,2.69-2,33.92,33.92,0,0,0,.47-5.53,2.38,2.38,0,0,0-2-2.28h-.15a12.05,12.05,0,0,1-6.7-20.81,2.3,2.3,0,0,0,.45-3.14,37.15,37.15,0,0,0-3.68-4.28,2.42,2.42,0,0,0-3.25-.1A12,12,0,0,1,86.48,58a2.4,2.4,0,0,0-1.94-2.51A45.5,45.5,0,0,0,78.85,55a2.55,2.55,0,0,0-2.39,2.19,12.07,12.07,0,0,1-20.3,6.57A2.53,2.53,0,0,0,53,63.42,36.8,36.8,0,0,0,48.8,67a2.49,2.49,0,0,0-.34,3.2A12,12,0,0,1,38.76,89a2.65,2.65,0,0,0-2.57,2.16c-.2,1.65-.4,3.58-.45,5.47A2.46,2.46,0,0,0,37.82,99,12,12,0,0,1,44,119.46a2.29,2.29,0,0,0-.36,3,39.2,39.2,0,0,0,3.47,4.26,2.81,2.81,0,0,0,3.57.28A11.77,11.77,0,0,1,57.53,124.83Z"/><path d="M21.67,123.92H6a6,6,0,0,1-6-6V6A6,6,0,0,1,6,0H66a8.67,8.67,0,0,1,6.2,2.57L95.69,26.11a8.67,8.67,0,0,1,2.57,6.2V42.85a2,2,0,1,1-4,0V32.31a4.78,4.78,0,0,0-1.39-3.38L69.33,5.39A4.78,4.78,0,0,0,66,4H6A2,2,0,0,0,4,6V117.92a2,2,0,0,0,2,2H21.67a2,2,0,0,1,0,4Z"/></g></g></svg>