<svg xmlns="http://www.w3.org/2000/svg" viewBox="0 0 152.34 144.24"><defs><style>.cls-1{fill:#b3b3b3;}</style></defs><g id="Layer_2" data-name="Layer 2"><g id="Layer_1-2" data-name="Layer 1"><path class="cls-1" d="M115.26,85.94a2,2,0,0,1-.85-.19L92.92,75.66A2,2,0,1,1,94.62,72l21.49,10.09a2,2,0,0,1-.85,3.81Z"/><path class="cls-1" d="M143.06,26.71a2,2,0,0,1-.85-.19L120.73,16.44a2,2,0,0,1,1.7-3.63L143.91,22.9a2,2,0,0,1-.85,3.81Z"/><path class="cls-1" d="M63.43,55.21H34.15a2,2,0,0,1,0-4H63.43a2,2,0,1,1,0,4Z"/><path class="cls-1" d="M82.35,71.27H34.15a2,2,0,1,1,0-4h48.2a2,2,0,0,1,0,4Z"/><path class="cls-1" d="M82.35,87.32H34.15a2,2,0,0,1,0-4h48.2a2,2,0,0,1,0,4Z"/><path class="cls-1" d="M94,103.38H34.15a2,2,0,0,1,0-4H94a2,2,0,0,1,0,4Z"/><path d="M19.54,144.24a2,2,0,0,1-1.09-.32,2,2,0,0,1-.91-1.75l.92-23.95A56,56,0,0,1,5.18,100.39,55.43,55.43,0,0,1,55.39,21.56H97a55.3,55.3,0,0,1,19.53,3.55,2,2,0,1,1-1.42,3.74A51.21,51.21,0,0,0,97,25.56H55.39A51.44,51.44,0,0,0,8.8,98.7a52,52,0,0,0,13,17.13,2,2,0,0,1,.69,1.59L21.67,139l22.91-11.34a2,2,0,0,1,1.26-.17,52.64,52.64,0,0,0,9.55.89h11.5a2,2,0,1,1,0,4H55.39a56.37,56.37,0,0,1-9.63-.84L20.43,144A2,2,0,0,1,19.54,144.24Z"/><path d="M97,132.34H77.45a2,2,0,0,1,0-4H97A51.38,51.38,0,0,0,134.3,41.66a2,2,0,1,1,2.9-2.75A55.38,55.38,0,0,1,97,132.34Z"/><path d="M94,103.38a2.19,2.19,0,0,1-.86-.19,2,2,0,0,1-1.14-1.8l-.19-27.52A2.16,2.16,0,0,1,92,73l9.27-19.74a2,2,0,0,1,3.62,1.7L95.78,74.29l.15,22.89,17.71-14.5,31.88-67.91a4.13,4.13,0,0,0-2-5.5L133.15,4.4a4.12,4.12,0,0,0-5.49,2l-19,40.46a2,2,0,1,1-3.62-1.7L124,4.68A8.12,8.12,0,0,1,134.85.78l10.39,4.87a8.15,8.15,0,0,1,3.91,10.82L117.07,84.79a2.06,2.06,0,0,1-.54.7L95.22,102.93A2,2,0,0,1,94,103.38Z"/><path d="M103.12,95.87a2.1,2.1,0,0,1-.84-.19L93,91.33a2,2,0,1,1,1.7-3.62L104,92.05a2,2,0,0,1-.86,3.82Z"/></g></g></svg>