<svg xmlns="http://www.w3.org/2000/svg" viewBox="0 0 141.84 142.09"><defs><style>.cls-1{fill:#b3b3b3;}</style></defs><g id="Layer_2" data-name="Layer 2"><g id="Layer_1-2" data-name="Layer 1"><path d="M135.7,142.09h-69a6.13,6.13,0,0,1-5.31-9.19L95.91,73.18A2,2,0,0,1,96,73a6.13,6.13,0,0,1,10.5.19L141,132.9a6.13,6.13,0,0,1-5.31,9.19ZM99.28,75.33,64.89,134.9a2.13,2.13,0,0,0,1.85,3.19h69a2.13,2.13,0,0,0,1.84-3.19L103.07,75.18a2.14,2.14,0,0,0-3.69,0A.78.78,0,0,1,99.28,75.33Z"/><path class="cls-1" d="M101.21,118a2,2,0,0,1-2-2V94.05a2,2,0,0,1,4,0V116A2,2,0,0,1,101.21,118Z"/><path class="cls-1" d="M101.21,128.17a2,2,0,0,1-2-2v-1a2,2,0,0,1,4,0v1A2,2,0,0,1,101.21,128.17Z"/><path d="M101.21,25.3a2,2,0,0,1-2-2V6.09A2.1,2.1,0,0,0,97.12,4h-91A2.1,2.1,0,0,0,4,6.09V23.3a2,2,0,0,1-4,0V6.09A6.09,6.09,0,0,1,6.09,0h91a6.09,6.09,0,0,1,6.09,6.09V23.3A2,2,0,0,1,101.21,25.3Z"/><path d="M101.21,59.06a2,2,0,0,1-2-2V39.85a2.1,2.1,0,0,0-2.09-2.09h-91A2.1,2.1,0,0,0,4,39.85V57.06a2,2,0,0,1-4,0V39.85a6.09,6.09,0,0,1,6.09-6.09h91a6.09,6.09,0,0,1,6.09,6.09V57.06A2,2,0,0,1,101.21,59.06Z"/><path d="M67.09,106.39h-61A6.09,6.09,0,0,1,0,100.3V73.6a6.09,6.09,0,0,1,6.09-6.09H86.71a2,2,0,0,1,0,4H6.09A2.1,2.1,0,0,0,4,73.6v26.7a2.1,2.1,0,0,0,2.09,2.09h61a2,2,0,0,1,0,4Z"/><path class="cls-1" d="M18.86,26.28A7.14,7.14,0,1,1,26,19.14,7.14,7.14,0,0,1,18.86,26.28Zm0-10.28A3.14,3.14,0,1,0,22,19.14,3.15,3.15,0,0,0,18.86,16Z"/><path class="cls-1" d="M18.86,60A7.14,7.14,0,1,1,26,52.9,7.14,7.14,0,0,1,18.86,60Zm0-10.28A3.14,3.14,0,1,0,22,52.9,3.15,3.15,0,0,0,18.86,49.76Z"/><path class="cls-1" d="M18.86,94.4A7.14,7.14,0,1,1,26,87.26,7.14,7.14,0,0,1,18.86,94.4Zm0-10.28A3.14,3.14,0,1,0,22,87.26,3.15,3.15,0,0,0,18.86,84.12Z"/></g></g></svg>