<svg xmlns="http://www.w3.org/2000/svg" viewBox="0 0 124.32 135.46"><defs><style>.cls-1{fill:#b3b3b3;}</style></defs><g id="Layer_2" data-name="Layer 2"><g id="Layer_1-2" data-name="Layer 1"><path d="M48,135.46a3,3,0,0,1-1.9-.69,2.92,2.92,0,0,1,.32-4.69c14.65-9.46,25.82-21.68,26-28.42a1.94,1.94,0,0,1,3.88.08c-.19,8.34-11.15,19.72-22.72,28.16,17.37-5.51,30.92-13.12,38.51-21.7,8.8-9.92,2.87-17.54-.09-20.35A1.94,1.94,0,0,1,94.64,85c6.07,5.78,9.34,15.57.33,25.75-8.86,10-25.15,18.7-45.86,24.49l-.33.09A3,3,0,0,1,48,135.46Zm.53-2.12h0Z"/><path d="M2.91,97.63A2.88,2.88,0,0,1,1.08,97,2.92,2.92,0,0,1,0,94.37l0-.32C2.42,72.67,8.38,55.19,16.82,44.83c6.12-7.5,12.51-8.29,16.8-7.63,7.4,1.13,13,7.14,14.51,10.85l-3.61,1.44C43.36,46.57,38.6,41.88,33,41c-4.78-.73-9.22,1.37-13.2,6.26C12.59,56.16,7.27,70.78,4.64,88.83c7.12-14.12,17.41-27,25.58-27.14,2.26,0,5.33.83,7.43,5.21l-3.49,1.68c-1.32-2.74-2.86-3-3.87-3-6.37.12-17.44,13.71-24.69,30.31a2.88,2.88,0,0,1-2,1.67A3.25,3.25,0,0,1,2.91,97.63Zm1-2.83v0Z"/><path class="cls-1" d="M11.26,135,11,135a1.93,1.93,0,0,1-1.59-1.39C3,110.86,13.18,104.48,22.81,101.47a1.94,1.94,0,1,1,1.15,3.7c-5.63,1.76-15.84,5-11.72,23.88,2.64-2.16,5.75-2.71,8.59-3.22,5.35-1,10-1.78,12.38-12.5a1.94,1.94,0,0,1,3.79.86c-3,13.23-9.92,14.47-15.49,15.46-3.65.65-6.54,1.17-8.61,4.48A1.94,1.94,0,0,1,11.26,135Z"/><path d="M42.79,112.14l-.82-.59c-3.18-2.29-7-5.38-10.49-8.46h0A90,90,0,0,1,24,95.67l-.63-.73.2-1A139.56,139.56,0,0,1,42.08,51.72C55,31.77,78.88,6.78,119.33,1a4.45,4.45,0,0,1,3.51,1.23,4.17,4.17,0,0,1,1.47,3.23c-2.11,41.26-23.91,68-41.82,83.13-19.37,16.38-38,22.94-38.75,23.21Zm-8.73-12c3.08,2.73,6.44,5.46,9.35,7.61A136.27,136.27,0,0,0,80.09,85.55c17.27-14.64,38.28-40.43,40.34-80.19a1.11,1.11,0,0,0-.63-.5C88.61,9.31,63.56,25.75,45.41,53.72a140.51,140.51,0,0,0-17.8,40.14C28.64,95,30.86,97.31,34.06,100.19Z"/><path class="cls-1" d="M93.59,43.93A9.41,9.41,0,1,1,103,34.52,9.42,9.42,0,0,1,93.59,43.93Zm0-14.94a5.53,5.53,0,1,0,5.53,5.53A5.54,5.54,0,0,0,93.59,29Z"/><path class="cls-1" d="M72.09,67.81A9.41,9.41,0,1,1,81.5,58.4,9.42,9.42,0,0,1,72.09,67.81Zm0-14.94a5.53,5.53,0,1,0,5.53,5.53A5.54,5.54,0,0,0,72.09,52.87Z"/><path class="cls-1" d="M3.83,33.82a1.94,1.94,0,0,1-1.27-3.41L21,14.56a1.94,1.94,0,1,1,2.53,2.94L5.09,33.35A1.92,1.92,0,0,1,3.83,33.82Z"/><path class="cls-1" d="M107.73,85.75a1.94,1.94,0,0,1-1.27-3.41L120.87,70a1.94,1.94,0,1,1,2.53,2.94L109,85.28A1.92,1.92,0,0,1,107.73,85.75Z"/><path class="cls-1" d="M92.46,135a1.94,1.94,0,0,1-1.27-3.41l29.35-25.2a1.94,1.94,0,1,1,2.53,2.94l-29.35,25.2A1.92,1.92,0,0,1,92.46,135Z"/><path class="cls-1" d="M27,29.87a1.94,1.94,0,0,1-1.27-3.41L56,.47a1.94,1.94,0,1,1,2.53,2.94l-30.27,26A1.92,1.92,0,0,1,27,29.87Z"/></g></g></svg>