<?xml version="1.0" encoding="UTF-8"?>
<svg id="Layer_2" data-name="Layer 2" xmlns="http://www.w3.org/2000/svg" viewBox="0 0 123.98 135.65">
  <defs>
    <style>
      .cls-1 {
        opacity: .4;
      }

      .cls-1, .cls-2, .cls-3 {
        fill: none;
        stroke: #000;
        stroke-linecap: round;
        stroke-linejoin: round;
        stroke-width: 4px;
      }

      .cls-2 {
        opacity: .3;
      }
    </style>
  </defs>
  <g id="Warstwa_1" data-name="Warstwa 1">
    <g>
      <polyline class="cls-2" points="121.98 97.23 76.2 97.23 76.2 82.12 48.44 107.88 76.2 133.65 76.2 118.54 121.98 118.54"/>
      <g>
        <path class="cls-3" d="M101.21,23.3V6.09c0-2.26-1.83-4.09-4.09-4.09H6.09c-2.26,0-4.09,1.83-4.09,4.09v17.21"/>
        <path class="cls-3" d="M101.21,57.06v-17.21c0-2.26-1.83-4.09-4.09-4.09H6.09c-2.26,0-4.09,1.83-4.09,4.09v17.21"/>
        <circle class="cls-1" cx="18.86" cy="19.14" r="5.14"/>
        <circle class="cls-1" cx="18.86" cy="52.9" r="5.14"/>
        <circle class="cls-1" cx="18.86" cy="87.26" r="5.14"/>
      </g>
      <path class="cls-3" d="M101.21,86.81v-13.21c0-2.26-1.83-4.09-4.09-4.09H6.09c-2.26,0-4.09,1.83-4.09,4.09v26.7c0,2.26,1.83,4.09,4.09,4.09h30.17"/>
    </g>
  </g>
</svg>