<svg width="32" height="33" viewBox="0 0 32 33" fill="none" xmlns="http://www.w3.org/2000/svg">
<g clip-path="url(#clip0_740_2)">
<path d="M16 32.5601C24.8366 32.5601 32 25.3966 32 16.5601C32 7.7235 24.8366 0.560059 16 0.560059C7.16344 0.560059 0 7.7235 0 16.5601C0 25.3966 7.16344 32.5601 16 32.5601Z" fill="#D0F525"/>
<path d="M19.66 17.48L15.49 22.44H18.21L20.39 19.84L20.86 19.29H21.53H21.98H22.65L22.88 19.56L25.3 22.44H28.02L23.85 17.48H19.66Z" fill="black"/>
<path d="M3.58997 16.5601C3.58997 19.5901 5.82997 22.1001 8.72997 22.5401V20.4301C6.96997 20.0201 5.65997 18.4401 5.65997 16.5601C5.65997 14.6801 6.96997 13.1001 8.72997 12.6901V10.5801C5.81997 11.0201 3.58997 13.5301 3.58997 16.5601Z" fill="black"/>
<path d="M10.5399 10.5801V12.6901C12.2999 13.1001 13.6099 14.6801 13.6099 16.5601C13.6099 18.4401 12.2999 20.0201 10.5399 20.4301V22.5401C13.4499 22.1001 15.6799 19.5901 15.6799 16.5601C15.6799 13.5301 13.4399 11.0201 10.5399 10.5801Z" fill="black"/>
<path d="M23.85 15.6401L28.02 10.6801H25.3L23.2 13.1801L23.03 13.3801L22.88 13.5601L22.65 13.8301H21.98H21.53H20.86L20.63 13.5601L18.21 10.6801H15.49L19.66 15.6401H23.85Z" fill="black"/>
</g>
<defs>
<clipPath id="clip0_740_2">
<rect width="32" height="32" fill="white" transform="translate(0 0.560059)"/>
</clipPath>
</defs>
</svg>
