<?xml version="1.0" encoding="UTF-8"?>
<svg id="Layer_2" data-name="Layer 2" xmlns="http://www.w3.org/2000/svg" viewBox="0 0 125.77 134.56">
  <defs>
    <style>
      .cls-1 {
        stroke-miterlimit: 10;
      }

      .cls-1, .cls-2 {
        fill: none;
        stroke: #1d1d1b;
        stroke-linecap: round;
        stroke-width: 3.88px;
      }

      .cls-2 {
        opacity: .3;
        stroke-linejoin: round;
      }
    </style>
  </defs>
  <g id="Warstwa_1" data-name="Warstwa 1">
    <g>
      <g>
        <path class="cls-1" d="M86.09,77.42c20.84,0,37.74-16.9,37.74-37.74S106.93,1.94,86.09,1.94c-8.75,0-16.8,2.99-23.2,7.99-6.4-5-14.45-7.99-23.2-7.99C18.84,1.94,1.94,18.84,1.94,39.68s16.9,37.74,37.74,37.74c8.75,0,16.8-2.99,23.2-7.99,1.5,1.17,3.08,2.23,4.75,3.16"/>
        <path class="cls-2" d="M77.42,39.68c0-12.09-5.69-22.85-14.54-29.76-8.85,6.91-14.54,17.66-14.54,29.76s5.69,22.85,14.54,29.76c8.85-6.91,14.54-17.66,14.54-29.76Z"/>
      </g>
      <g>
        <path class="cls-1" d="M91.62,66.9h-5.09c-4.57,0-8.57,3.09-9.71,7.52l-13.13,50.69c-1.15,4.43-5.14,7.52-9.71,7.52h-5.09"/>
        <line class="cls-1" x1="61.48" y1="99.76" x2="79.02" y2="99.76"/>
        <g>
          <line class="cls-1" x1="96.33" y1="107.27" x2="110.45" y2="121.39"/>
          <line class="cls-1" x1="96.33" y1="121.39" x2="110.45" y2="107.27"/>
        </g>
        <path class="cls-1" d="M90.11,98.46c-3.75,4.23-6.02,9.78-6.02,15.88s2.28,11.65,6.02,15.88"/>
        <path class="cls-1" d="M116.66,98.46c3.75,4.23,6.02,9.78,6.02,15.88,0,6.09-2.28,11.65-6.02,15.88"/>
      </g>
    </g>
  </g>
</svg>