<?xml version="1.0" encoding="UTF-8"?>
<svg id="Layer_2" data-name="Layer 2" xmlns="http://www.w3.org/2000/svg" viewBox="0 0 141.83 142.09">
  <defs>
    <style>
      .cls-1 {
        opacity: .4;
      }

      .cls-1, .cls-2 {
        fill: none;
        stroke: #000;
        stroke-linecap: round;
        stroke-linejoin: round;
        stroke-width: 4px;
      }
    </style>
  </defs>
  <g id="Warstwa_1" data-name="Warstwa 1">
    <g>
      <path class="cls-2" d="M97.64,74.18l-34.48,59.72c-1.59,2.75.4,6.19,3.58,6.19h68.96c3.18,0,5.16-3.44,3.58-6.19l-34.48-59.72c-1.59-2.75-5.56-2.75-7.15,0Z"/>
      <g>
        <line class="cls-1" x1="101.21" y1="94.05" x2="101.21" y2="115.99"/>
        <line class="cls-1" x1="101.21" y1="125.21" x2="101.21" y2="126.17"/>
      </g>
      <path class="cls-2" d="M101.21,23.3V6.09c0-2.26-1.83-4.09-4.09-4.09H6.09c-2.26,0-4.09,1.83-4.09,4.09v17.21"/>
      <path class="cls-2" d="M101.21,57.06v-17.21c0-2.26-1.83-4.09-4.09-4.09H6.09c-2.26,0-4.09,1.83-4.09,4.09v17.21"/>
      <path class="cls-2" d="M86.71,69.51H6.09c-2.26,0-4.09,1.83-4.09,4.09v26.7c0,2.26,1.83,4.09,4.09,4.09h61"/>
      <circle class="cls-1" cx="18.86" cy="19.14" r="5.14"/>
      <circle class="cls-1" cx="18.86" cy="52.9" r="5.14"/>
      <circle class="cls-1" cx="18.86" cy="87.26" r="5.14"/>
    </g>
  </g>
</svg>