<?xml version="1.0" encoding="UTF-8"?>
<svg id="Layer_2" data-name="Layer 2" xmlns="http://www.w3.org/2000/svg" viewBox="0 0 144.9 145.97">
  <defs>
    <style>
      .cls-1 {
        opacity: .4;
      }

      .cls-1, .cls-2 {
        fill: none;
        stroke: #000;
        stroke-linecap: round;
        stroke-linejoin: round;
        stroke-width: 4px;
      }
    </style>
  </defs>
  <g id="Warstwa_1" data-name="Warstwa 1">
    <g>
      <path class="cls-2" d="M87.36,20.33V5.52c0-1.94-1.58-3.52-3.52-3.52H5.52c-1.94,0-3.52,1.58-3.52,3.52v14.81"/>
      <path class="cls-2" d="M87.36,47.24v-12.68c0-1.94-1.58-3.52-3.52-3.52H5.52c-1.94,0-3.52,1.58-3.52,3.52v14.81"/>
      <path class="cls-2" d="M44.97,60.09H5.52c-1.94,0-3.52,1.58-3.52,3.52v14.81"/>
      <g>
        <path class="cls-2" d="M57.44,112.87c-15.01-15.01-15.01-39.35,0-54.37s39.35-15.01,54.36,0c15.01,15.01,15.01,39.35,0,54.36-15.01,15.01-39.35,15.01-54.37,0Z"/>
        <line class="cls-2" x1="111.81" y1="112.87" x2="142.9" y2="143.97"/>
      </g>
      <g>
        <path class="cls-1" d="M91.94,104.25v-30.89c0-4.06-3.29-7.34-7.34-7.34h-32.73"/>
        <circle class="cls-1" cx="69.9" cy="88.08" r="5.94"/>
      </g>
    </g>
  </g>
</svg>