<?xml version="1.0" encoding="UTF-8"?>
<svg id="Layer_2" data-name="Layer 2" xmlns="http://www.w3.org/2000/svg" viewBox="0 0 122.5 133.51">
  <defs>
    <style>
      .cls-1 {
        opacity: .3;
      }

      .cls-1, .cls-2 {
        fill: none;
        stroke: #000;
        stroke-linecap: round;
        stroke-linejoin: round;
        stroke-width: 4px;
      }

      .cls-3 {
        opacity: .4;
      }
    </style>
  </defs>
  <g id="Warstwa_1" data-name="Warstwa 1">
    <g>
      <g>
        <path class="cls-2" d="M26.67,121.92H6c-2.21,0-4-1.79-4-4V6c0-2.21,1.79-4,4-4h59.95c1.8,0,3.52.71,4.79,1.98l23.54,23.54c1.27,1.27,1.98,2.99,1.98,4.79v12.54"/>
        <g class="cls-3">
          <polyline class="cls-2" points="65.94 2 65.94 31.52 94.47 31.52"/>
        </g>
      </g>
      <g>
        <g>
          <line class="cls-1" x1="42.65" y1="65.81" x2="90.35" y2="65.81"/>
          <circle class="cls-2" cx="110.05" cy="65.81" r="9.69"/>
        </g>
        <g>
          <line class="cls-1" x1="120.5" y1="121.82" x2="72.04" y2="121.82"/>
          <circle class="cls-2" cx="52.34" cy="121.82" r="9.69"/>
        </g>
        <g>
          <line class="cls-1" x1="120.5" y1="93.59" x2="101.05" y2="93.59"/>
          <line class="cls-1" x1="42.65" y1="93.59" x2="61.66" y2="93.59"/>
          <circle class="cls-2" cx="81.35" cy="93.59" r="9.69"/>
        </g>
      </g>
    </g>
  </g>
</svg>