<?xml version="1.0" standalone="no"?>
<!DOCTYPE svg PUBLIC "-//W3C//DTD SVG 20010904//EN"
 "http://www.w3.org/TR/2001/REC-SVG-20010904/DTD/svg10.dtd">
<svg version="1.0" xmlns="http://www.w3.org/2000/svg"
 width="512.000000pt" height="512.000000pt" viewBox="0 0 512.000000 512.000000"
 preserveAspectRatio="xMidYMid meet">

<g transform="translate(0.000000,512.000000) scale(0.100000,-0.100000)"
fill="#000000" stroke="none">
<path d="M845 5017 c-66 -22 -99 -43 -144 -92 -63 -68 -85 -124 -85 -215 0
-55 6 -88 21 -122 31 -69 105 -143 169 -169 l53 -22 3 -533 c3 -496 4 -535 21
-551 16 -16 47 -18 347 -21 l330 -3 0 -329 0 -330 -415 0 -415 0 0 103 c0 156
19 147 -321 147 -275 0 -276 0 -297 -23 -21 -23 -22 -30 -22 -298 0 -275 0
-276 23 -297 23 -21 30 -22 298 -22 339 0 319 -9 319 148 l0 102 415 0 415 0
0 -330 0 -329 -330 -3 c-300 -3 -331 -5 -347 -21 -17 -16 -18 -55 -21 -551
l-3 -533 -53 -22 c-64 -26 -138 -100 -169 -169 -29 -65 -29 -179 0 -244 30
-66 104 -141 166 -169 79 -35 192 -34 269 4 148 73 215 247 156 404 -28 76
-105 154 -176 179 l-52 19 2 480 3 480 278 3 277 2 0 -36 c0 -142 205 -266
533 -324 566 -99 1225 -5 1411 201 43 46 56 77 56 125 l0 34 278 -2 277 -3 3
-480 2 -480 -48 -17 c-64 -23 -130 -83 -167 -149 -40 -74 -46 -180 -16 -260
29 -75 88 -141 159 -176 77 -38 190 -39 269 -4 62 28 136 103 166 169 29 64
29 178 -1 244 -30 69 -103 142 -168 169 l-53 22 -3 533 c-3 496 -4 535 -21
551 -16 16 -47 18 -347 21 l-330 3 0 329 0 330 415 0 415 0 0 -103 c0 -156
-19 -147 321 -147 275 0 276 0 297 23 21 23 22 30 22 298 0 275 0 276 -23 297
-23 21 -30 22 -298 22 -339 0 -319 9 -319 -148 l0 -102 -415 0 -415 0 0 330 0
329 330 3 c300 3 331 5 347 21 17 16 18 55 21 551 l3 533 53 22 c65 27 138
100 168 169 30 66 30 180 1 244 -30 66 -104 141 -166 169 -79 35 -192 34 -269
-4 -204 -100 -240 -378 -69 -528 24 -22 66 -47 93 -57 l48 -17 -2 -480 -3
-480 -277 -3 -278 -2 0 36 c0 50 -24 96 -74 142 -61 56 -117 86 -236 126 -504
168 -1359 105 -1608 -119 -57 -51 -82 -97 -82 -149 l0 -36 -277 2 -278 3 -3
480 -2 480 52 19 c71 25 148 103 176 179 77 206 -61 422 -276 433 -39 2 -84
-2 -107 -9z m160 -146 c70 -32 105 -86 105 -161 0 -75 -35 -129 -105 -161 -53
-24 -99 -24 -152 2 -76 37 -117 124 -93 202 17 59 43 92 92 116 53 26 100 26
153 2z m3283 -14 c101 -66 102 -227 1 -294 -120 -79 -279 3 -279 146 0 144
158 228 278 148z m-1358 -1192 c271 -41 490 -133 490 -204 0 -28 -64 -76 -147
-111 -352 -147 -1074 -147 -1426 0 -83 35 -147 83 -147 111 0 84 281 185 605
218 130 14 500 5 625 -14z m-1117 -450 c392 -161 1210 -150 1549 21 26 13 50
24 53 24 3 0 5 -94 5 -208 l0 -208 -28 -27 c-69 -66 -273 -132 -507 -162 -160
-21 -491 -21 -650 0 -244 32 -432 92 -507 163 l-28 26 0 209 c0 164 3 208 13
204 6 -4 51 -22 100 -42z m-1223 -655 l0 -180 -180 0 -180 0 0 180 0 180 180
0 180 0 0 -180z m4300 0 l0 -180 -180 0 -180 0 0 180 0 180 180 0 180 0 0
-180z m-3115 67 c317 -148 1014 -173 1429 -52 66 19 127 44 209 83 4 2 7 -91
7 -206 l0 -209 -26 -27 c-123 -122 -592 -206 -996 -178 -324 23 -585 92 -671
178 l-27 27 0 209 c0 115 3 208 8 206 4 -2 34 -16 67 -31z m99 -641 c187 -62
399 -90 691 -89 331 0 600 44 781 127 l74 35 0 -210 0 -210 -25 -25 c-62 -62
-254 -127 -475 -161 -162 -25 -559 -25 -718 0 -227 36 -415 99 -477 161 l-25
25 0 211 0 210 48 -24 c26 -13 83 -35 126 -50z m-869 -1415 c70 -32 105 -86
105 -161 0 -75 -35 -129 -105 -161 -53 -24 -99 -24 -152 2 -76 37 -117 124
-93 202 17 59 43 92 92 116 53 26 100 26 153 2z m3283 -14 c101 -66 102 -227
1 -294 -120 -79 -279 3 -279 146 0 144 158 228 278 148z"/>
<path d="M1877 2992 c-22 -25 -22 -75 1 -95 20 -18 141 -52 221 -63 41 -5 52
-3 70 15 29 29 29 86 -1 105 -24 15 -207 56 -249 56 -14 0 -33 -8 -42 -18z"/>
<path d="M1877 2392 c-23 -25 -21 -75 2 -96 21 -19 132 -51 212 -62 65 -9 99
12 99 61 0 41 -19 62 -68 73 -99 24 -189 42 -208 42 -11 0 -28 -8 -37 -18z"/>
<path d="M1881 1791 c-24 -24 -27 -68 -8 -95 14 -20 188 -66 248 -66 43 0 69
25 69 67 0 44 -24 59 -130 84 -147 33 -155 34 -179 10z"/>
</g>
</svg>
