<?xml version="1.0" encoding="UTF-8"?>
<svg id="Layer_2" data-name="Layer 2" xmlns="http://www.w3.org/2000/svg" viewBox="0 0 119.7 134.54">
  <defs>
    <style>
      .cls-1 {
        opacity: .4;
      }

      .cls-1, .cls-2 {
        fill: none;
        stroke: #000;
        stroke-linecap: round;
        stroke-linejoin: round;
        stroke-width: 4px;
      }
    </style>
  </defs>
  <g id="Warstwa_1" data-name="Warstwa 1">
    <g>
      <path class="cls-2" d="M34.78,95.43c.17.24.38.48.59.72l6.8,7.84c4.03,4.64,8.71,10.05,11.36,13.1.81.93,1.6,1.89,2.37,2.81l.88,1.05c3.4,4.07,7.83,7.28,12.81,9.26h0c8,3.19,17.07,3.09,24.88-.26l3.6-1.55c16.43-7.06,24.06-26.18,16.99-42.61l-14.16-32.95c-.8-1.86-2.34-3.36-4.23-4.12-1.75-.7-3.65-.72-5.36-.05-1.91.74-3.39,2.18-4.17,4.06-.79,1.88-.78,3.94.03,5.82l5.63,13.09c.06.13,0,.28-.13.34-.08.03-.15.02-.2,0s-.11-.06-.14-.14l-7.7-17.91c-.8-1.86-2.34-3.36-4.23-4.12-1.75-.7-3.65-.72-5.36-.05-1.91.74-3.39,2.18-4.17,4.06-.79,1.88-.78,3.94.02,5.82l6.68,15.54c.06.13,0,.28-.13.34-.08.03-.15.02-.2,0s-.11-.06-.14-.14l-8.75-20.35c-.8-1.86-2.34-3.36-4.23-4.12-1.75-.7-3.65-.72-5.36-.05-1.9.74-3.38,2.18-4.17,4.06-.79,1.88-.78,3.94.02,5.82l6.66,15.49-.47.2-18.48-42.99c-.8-1.86-2.34-3.36-4.23-4.12-1.75-.7-3.65-.72-5.36-.05-1.9.74-3.39,2.18-4.17,4.06-.79,1.88-.78,3.94.02,5.82l21.89,50.93c.05.11,0,.25-.1.32-.11.07-.22.04-.24.03-.04-.01-.07-.04-.1-.07l-4-4.61c-.77-.89-1.76-1.6-2.86-2.03-1.83-.73-3.9-.7-5.7.07-.7.3-1.35.71-1.93,1.21-1.5,1.3-2.41,3.11-2.55,5.09-.14,1.98.5,3.9,1.8,5.4v-.04Z"/>
      <g>
        <g>
          <line class="cls-1" x1="21.08" y1="47.9" x2="11.7" y2="57.47"/>
          <line class="cls-1" x1="57.03" y1="11.26" x2="47.67" y2="20.8"/>
        </g>
        <line class="cls-1" x1="11.26" y1="11.7" x2="20.8" y2="21.05"/>
        <line class="cls-1" x1="34.06" y1="2" x2="34.18" y2="15.36"/>
        <g>
          <line class="cls-1" x1="53.33" y1="34.18" x2="66.73" y2="34.06"/>
          <line class="cls-1" x1="2" y1="34.67" x2="15.36" y2="34.54"/>
        </g>
      </g>
    </g>
  </g>
</svg>