<?xml version="1.0" standalone="no"?>
<!DOCTYPE svg PUBLIC "-//W3C//DTD SVG 20010904//EN"
 "http://www.w3.org/TR/2001/REC-SVG-20010904/DTD/svg10.dtd">
<svg version="1.0" xmlns="http://www.w3.org/2000/svg"
 width="512.000000pt" height="512.000000pt" viewBox="0 0 512.000000 512.000000"
 preserveAspectRatio="xMidYMid meet">

<g transform="translate(0.000000,512.000000) scale(0.100000,-0.100000)"
fill="#000000" stroke="none">
<path d="M4390 4983 c-26 -9 -65 -37 -95 -67 -44 -45 -69 -91 -224 -421 -96
-203 -176 -371 -177 -373 -1 -2 -40 8 -85 23 -46 14 -133 36 -194 47 -105 20
-146 21 -975 25 -896 5 -1004 1 -1185 -37 -229 -47 -495 -163 -685 -298 -122
-86 -345 -309 -433 -432 -134 -189 -251 -456 -297 -680 -45 -216 -51 -542 -16
-745 67 -379 242 -719 505 -985 l90 -91 -20 -361 c-12 -199 -18 -376 -14 -394
8 -45 47 -74 99 -74 33 0 110 36 411 190 l370 190 407 0 407 0 20 26 c24 31
26 43 9 79 -20 44 -53 46 -488 43 l-405 -3 -334 -172 c-184 -95 -338 -173
-342 -173 -4 0 -5 26 -3 58 7 87 34 595 34 628 0 23 -16 44 -78 104 -364 348
-542 767 -542 1272 0 210 26 376 86 558 196 590 694 1017 1314 1126 97 18 174
19 1015 19 832 0 918 -2 1005 -18 129 -24 250 -58 250 -70 0 -5 -56 -129 -126
-275 -135 -286 -141 -308 -92 -345 28 -21 65 -18 90 7 8 7 121 240 253 517
131 277 240 506 241 508 3 3 511 -235 522 -244 4 -3 -897 -1898 -906 -1906
-11 -9 -517 238 -514 251 1 6 65 144 142 306 77 162 140 305 140 318 0 52 -82
86 -121 50 -9 -8 -90 -169 -180 -357 l-163 -342 -27 -415 c-16 -228 -28 -418
-28 -422 -1 -5 -437 -8 -969 -8 -926 0 -970 -1 -985 -18 -24 -27 -22 -85 4
-108 20 -18 53 -19 996 -22 842 -2 978 -4 996 -17 12 -8 40 -15 63 -15 51 0
40 -9 447 370 l296 274 327 691 c180 379 331 694 335 699 17 20 183 -224 250
-370 101 -218 147 -415 156 -669 11 -330 -35 -568 -163 -835 -227 -475 -646
-804 -1172 -922 -90 -19 -135 -22 -587 -27 -269 -4 -497 -10 -506 -14 -17 -8
-39 -49 -39 -71 0 -7 10 -25 21 -40 l21 -27 497 3 c471 4 502 5 606 27 650
135 1173 596 1381 1217 103 308 123 685 54 1023 -55 272 -190 554 -373 778
-37 45 -67 86 -67 90 0 4 91 199 202 433 l203 425 3 78 c4 71 1 84 -27 142
-44 88 -92 127 -260 208 -144 70 -147 71 -236 74 -64 2 -103 -2 -135 -14z
m323 -202 c105 -52 134 -71 158 -104 47 -65 42 -109 -33 -266 l-63 -131 -257
122 c-142 68 -258 128 -258 134 0 6 29 71 65 143 78 159 96 174 195 168 55 -3
84 -13 193 -66z m-1019 -2665 c11 -4 -181 -195 -197 -196 -5 0 -67 28 -139 62
l-130 62 7 105 c3 58 8 122 11 142 l5 37 216 -104 c119 -57 221 -105 227 -108z
m-330 -306 c8 -8 -129 -148 -153 -158 -7 -2 -5 80 5 175 l5 52 67 -30 c37 -17
71 -34 76 -39z"/>
<path d="M1100 3210 c-30 -30 -27 -83 7 -110 26 -20 31 -20 546 -18 l519 3 19
24 c26 32 24 73 -4 99 l-23 22 -522 0 c-509 0 -523 -1 -542 -20z"/>
<path d="M1130 2693 c-51 -19 -68 -85 -30 -123 20 -20 33 -20 864 -20 790 0
845 1 865 18 33 26 31 79 -3 109 l-27 23 -827 -1 c-455 0 -834 -3 -842 -6z"/>
<path d="M1100 2140 c-30 -30 -27 -83 6 -109 27 -21 32 -21 855 -21 598 0 835
3 853 11 34 16 47 57 31 96 -7 16 -20 33 -30 37 -9 3 -394 6 -856 6 -826 0
-839 0 -859 -20z"/>
</g>
</svg>
