<?xml version="1.0" encoding="UTF-8"?>
<svg id="Layer_2" data-name="Layer 2" xmlns="http://www.w3.org/2000/svg" viewBox="0 0 125 144.26">
  <defs>
    <style>
      .cls-1 {
        fill: none;
        stroke: #000;
        stroke-linecap: round;
        stroke-linejoin: round;
        stroke-width: 4px;
      }

      .cls-2 {
        opacity: .4;
      }
    </style>
  </defs>
  <g id="Warstwa_1" data-name="Warstwa 1">
    <g>
      <g class="cls-2">
        <path class="cls-1" d="M83.88,115.06c-9.52,3.09-19.82-2.14-22.92-11.68-3.1-9.54,2.16-19.83,11.68-22.92,9.54-3.1,19.84,2.14,22.94,11.68,3.1,9.54-2.16,19.82-11.7,22.92Z"/>
      </g>
      <path class="cls-1" d="M119.07,94.08c-3.74-.44-7.07-3.04-8.31-6.87-1.25-3.85-.07-7.89,2.74-10.48,1.7-1.58,2.07-4.02.68-5.83-1.19-1.61-2.46-3.07-3.86-4.47-1.54-1.6-4.05-1.67-5.87-.28-2.96,2.21-7.02,2.72-10.54.93-3.51-1.79-5.53-5.37-5.43-9.05.03-2.22-1.43-4.23-3.66-4.54-2-.29-4.01-.44-5.93-.48-2.19,0-4,1.66-4.4,3.83-.59,3.56-3.1,6.65-6.8,7.85-3.7,1.2-7.54.18-10.14-2.35-1.58-1.53-4.02-1.82-5.78-.53-1.53,1.16-3.05,2.37-4.41,3.78-1.55,1.53-1.79,3.93-.54,5.73,2.02,2.91,2.42,6.87.67,10.23-1.74,3.41-5.18,5.42-8.76,5.47-2.25.06-4.14,1.65-4.52,3.87-.23,1.93-.42,3.82-.47,5.71-.05,2.15,1.56,3.97,3.69,4.39,3.49.61,6.57,3.12,7.75,6.75,1.23,3.78.11,7.73-2.53,10.28-1.55,1.52-1.81,3.88-.59,5.58,1.09,1.56,2.32,3.06,3.63,4.46,1.57,1.68,4.19,1.85,6.13.58,2.9-2.05,6.81-2.43,10.2-.77,3.59,1.85,5.58,5.52,5.42,9.3-.11,2.14,1.41,4.08,3.5,4.48,2.03.36,4.04.51,6.11.59,2.24.08,4.01-1.61,4.27-3.79.49-3.67,3.06-6.99,6.84-8.22,3.83-1.24,7.86-.06,10.46,2.74,1.57,1.68,4.11,2.09,5.95.78,1.6-1.19,3.17-2.41,4.54-3.82,1.62-1.55,1.7-4.06.33-5.8-2.35-2.97-2.91-7.18-1.09-10.76,1.84-3.61,5.63-5.64,9.42-5.49,2.31.13,4.35-1.41,4.74-3.64.31-1.93.51-3.9.5-5.89.03-2.2-1.75-4.02-3.93-4.28Z"/>
      <path class="cls-1" d="M21.67,121.92H6c-2.21,0-4-1.79-4-4V6c0-2.21,1.79-4,4-4h59.95c1.8,0,3.52.71,4.79,1.98l23.54,23.54c1.27,1.27,1.98,2.99,1.98,4.79v10.54"/>
      <g class="cls-2">
        <polyline class="cls-1" points="65.94 2 65.94 31.52 94.47 31.52"/>
      </g>
    </g>
  </g>
</svg>