<?xml version="1.0" encoding="UTF-8"?>
<svg id="Layer_2" data-name="Layer 2" xmlns="http://www.w3.org/2000/svg" viewBox="0 0 142.87 143.38">
  <defs>
    <style>
      .cls-1 {
        opacity: .4;
      }

      .cls-1, .cls-2 {
        fill: none;
        stroke: #000;
        stroke-linecap: round;
        stroke-linejoin: round;
        stroke-width: 4px;
      }
    </style>
  </defs>
  <g id="Warstwa_1" data-name="Warstwa 1">
    <g>
      <path class="cls-2" d="M97.92,57.92V6c0-2.21-1.79-4-4-4H6c-2.21,0-4,1.79-4,4v111.92c0,2.21,1.79,4,4,4h78.35"/>
      <path class="cls-2" d="M97.79,141.38l.02-33.03c0-1.69-.79-3.27-2.14-4.29l-20.72-15.54c-1.35-1.01-2.14-2.6-2.14-4.28v-10.9c0-1.87,1.51-3.38,3.38-3.38h61.3c1.87,0,3.38,1.51,3.38,3.38v10.9c0,1.69-.79,3.27-2.14,4.28l-20.73,15.54c-1.35,1.01-2.14,2.6-2.14,4.28v16.97l-18.07,16.07Z"/>
      <line class="cls-1" x1="16.06" y1="26" x2="83.85" y2="26"/>
      <line class="cls-1" x1="16.06" y1="97.92" x2="67.47" y2="97.92"/>
      <line class="cls-1" x1="16.06" y1="49.97" x2="83.85" y2="49.97"/>
      <line class="cls-1" x1="16.06" y1="73.95" x2="58.81" y2="73.95"/>
    </g>
  </g>
</svg>