<?xml version="1.0" encoding="UTF-8"?>
<svg id="Layer_2" data-name="Layer 2" xmlns="http://www.w3.org/2000/svg" viewBox="0 0 124.32 135.46">
  <defs>
    <style>
      .cls-1, .cls-2, .cls-3 {
        stroke-miterlimit: 10;
      }

      .cls-1, .cls-2, .cls-3, .cls-4 {
        fill: none;
        stroke: #000;
        stroke-width: 3.88px;
      }

      .cls-2, .cls-4 {
        opacity: .3;
      }

      .cls-3, .cls-4 {
        stroke-linecap: round;
      }

      .cls-4 {
        stroke-linejoin: round;
      }
    </style>
  </defs>
  <g id="Warstwa_1" data-name="Warstwa 1">
    <g>
      <g>
        <path class="cls-3" d="M93.31,86.44c5.12,4.87,8.74,13.42.21,23.05-13.66,15.43-40.77,22.74-45.26,24-.32.09-.66,0-.91-.21h0c-.49-.43-.43-1.21.12-1.56,14.85-9.59,26.69-22.33,26.86-30.02"/>
        <path class="cls-1" d="M46.33,48.77c-2.34-5.87-16.12-17.29-28-2.71C5.31,62.03,2.47,89.96,1.95,94.6c-.04.33.1.66.36.87h0c.5.41,1.26.22,1.52-.37,9.69-22.19,26.11-39.76,32.08-27.36"/>
        <path class="cls-4" d="M23.39,103.32c-7.64,2.39-18.5,7.22-12.13,29.78,6.26-10,19.32.76,23.85-19.34"/>
        <path class="cls-1" d="M32.77,101.64c3.73,3.3,7.47,6.27,10.34,8.34,0,0,75.25-26.09,79.27-104.6.06-1.25-1.53-2.62-2.77-2.45C42.71,13.9,25.49,94.4,25.49,94.4c0,0,2.61,3.03,7.28,7.24"/>
        <circle class="cls-2" cx="93.59" cy="34.52" r="7.47"/>
        <circle class="cls-2" cx="72.09" cy="58.4" r="7.47"/>
      </g>
      <line class="cls-4" x1="22.28" y1="16.03" x2="3.83" y2="31.88"/>
      <line class="cls-4" x1="122.14" y1="71.44" x2="107.73" y2="83.81"/>
      <line class="cls-4" x1="121.81" y1="107.9" x2="92.46" y2="133.1"/>
      <line class="cls-4" x1="57.23" y1="1.94" x2="26.96" y2="27.93"/>
    </g>
  </g>
</svg>