<?xml version="1.0" encoding="UTF-8"?>
<svg id="Layer_2" data-name="Layer 2" xmlns="http://www.w3.org/2000/svg" viewBox="0 0 143.02 135.26">
  <defs>
    <style>
      .cls-1 {
        fill: none;
        stroke: #000;
        stroke-linecap: round;
        stroke-linejoin: round;
        stroke-width: 4px;
      }

      .cls-2 {
        opacity: .4;
      }
    </style>
  </defs>
  <g id="Warstwa_1" data-name="Warstwa 1">
    <g>
      <path class="cls-1" d="M111.87,97.24l-17.56-70.9c-.48-1.95-3.24-1.98-3.77-.04l-14.67,53.81c-.49,1.8-2.98,1.95-3.68.22l-13.68-33.62c-.68-1.66-3.05-1.6-3.64.09l-17.71,50.27c-.45,1.27.49,2.59,1.84,2.59h70.99c1.26,0,2.19-1.19,1.89-2.42Z"/>
      <path class="cls-1" d="M15.64,2v112.69c0,2.72,2.21,4.93,4.93,4.93h120.45"/>
      <g class="cls-2">
        <line class="cls-1" x1="15.64" y1="36.85" x2="86.54" y2="36.85"/>
      </g>
      <g class="cls-2">
        <line class="cls-1" x1="96.91" y1="36.85" x2="122.53" y2="36.85"/>
      </g>
      <g class="cls-2">
        <line class="cls-1" x1="15.64" y1="77" x2="43.82" y2="77"/>
      </g>
      <g class="cls-2">
        <line class="cls-1" x1="107.81" y1="77" x2="122.83" y2="77"/>
      </g>
      <polyline class="cls-1" points="2 15.64 15.64 2 29.28 15.64"/>
      <polyline class="cls-1" points="127.38 105.98 141.02 119.62 127.38 133.26"/>
    </g>
  </g>
</svg>