<?xml version="1.0" encoding="UTF-8"?>
<!DOCTYPE svg PUBLIC "-//W3C//DTD SVG 1.1//EN" "http://www.w3.org/Graphics/SVG/1.1/DTD/svg11.dtd">
<svg xmlns="http://www.w3.org/2000/svg" version="1.1" width="32px" height="32px" style="shape-rendering:geometricPrecision; text-rendering:geometricPrecision; image-rendering:optimizeQuality; fill-rule:evenodd; clip-rule:evenodd" xmlns:xlink="http://www.w3.org/1999/xlink">
<g><path style="opacity:0.97" fill="#caee24" d="M 9.5,-0.5 C 13.5,-0.5 17.5,-0.5 21.5,-0.5C 25.8333,1.83333 29.1667,5.16667 31.5,9.5C 31.5,13.5 31.5,17.5 31.5,21.5C 29.1667,25.8333 25.8333,29.1667 21.5,31.5C 17.5,31.5 13.5,31.5 9.5,31.5C 5.16667,29.1667 1.83333,25.8333 -0.5,21.5C -0.5,17.5 -0.5,13.5 -0.5,9.5C 1.83333,5.16667 5.16667,1.83333 9.5,-0.5 Z"/></g>
<g><path style="opacity:1" fill="#141407" d="M 15.5,10.5 C 15.7352,9.90326 16.2352,9.56993 17,9.5C 18.1195,11.0748 19.6195,12.0748 21.5,12.5C 23.155,11.6123 24.8217,11.1123 26.5,11C 22.6156,15.7473 18.949,15.5806 15.5,10.5 Z"/></g>
<g><path style="opacity:1" fill="#121404" d="M 7.5,9.5 C 8.04309,9.55999 8.37642,9.89333 8.5,10.5C 7.06497,11.9285 6.06497,13.5952 5.5,15.5C 6.70413,17.4741 7.53746,19.4741 8,21.5C 2.20146,17.6676 2.03479,13.6676 7.5,9.5 Z"/></g>
<g><path style="opacity:1" fill="#121304" d="M 10.5,10.5 C 15.4289,11.8198 16.5956,14.8198 14,19.5C 13,20.1667 12,20.8333 11,21.5C 11.4625,19.4741 12.2959,17.4741 13.5,15.5C 12.7335,13.6425 11.7335,11.9758 10.5,10.5 Z"/></g>
<g><path style="opacity:1" fill="#1e210a" d="M 19.5,16.5 C 22.967,16.4457 25.6337,17.9457 27.5,21C 26.5,21.6667 25.5,21.6667 24.5,21C 22.5,17.6667 20.5,17.6667 18.5,21C 17.5,21.6667 16.5,21.6667 15.5,21C 17.0414,19.6288 18.3747,18.1288 19.5,16.5 Z"/></g>
</svg>
