<svg xmlns="http://www.w3.org/2000/svg" viewBox="0 0 119.71 134.53"><defs><style>.cls-1{fill:#b3b3b3;}</style></defs><g id="Layer_2" data-name="Layer 2"><g id="Layer_1-2" data-name="Layer 1"><path d="M81.75,134.53a35,35,0,0,1-12.9-2.46,34.21,34.21,0,0,1-13.6-9.84l-1.41-1.68c-.59-.71-1.2-1.44-1.82-2.15-1.26-1.44-3-3.42-4.85-5.59l-6.51-7.51-6.8-7.84-.43-.5-.15-.16a9.44,9.44,0,0,1,.95-13.31A9.7,9.7,0,0,1,36.68,82a9.53,9.53,0,0,1,7.23-.09,8.66,8.66,0,0,1,1.07.5L26.74,39.94a9.41,9.41,0,0,1,0-7.38,9.34,9.34,0,0,1,12.11-5.1,9.85,9.85,0,0,1,5.33,5.19l8.93,20.77A9.34,9.34,0,0,1,58,49a9.22,9.22,0,0,1,6.83,0,9.88,9.88,0,0,1,4.39,3.5A9.36,9.36,0,0,1,81.14,48a9.86,9.86,0,0,1,4.38,3.5,9.36,9.36,0,0,1,5.07-4.65,9.24,9.24,0,0,1,6.82.06,9.85,9.85,0,0,1,5.33,5.19L116.9,85a34.47,34.47,0,0,1-18,45.24l-3.6,1.55A34.28,34.28,0,0,1,81.75,134.53ZM36.08,93.91a1.86,1.86,0,0,1,.33.36c.13.19.3.37.46.56l6.81,7.85,6.52,7.51L55,115.78c.64.73,1.26,1.48,1.87,2.21l1.4,1.67a30.18,30.18,0,0,0,12,8.69,30.75,30.75,0,0,0,23.35-.24l3.6-1.55a30.46,30.46,0,0,0,15.94-40L99.06,53.63a5.73,5.73,0,0,0-3.14-3.05,5.26,5.26,0,0,0-3.88,0,5.45,5.45,0,0,0-3,7.23l5.63,13.09a2.27,2.27,0,0,1-1.13,3l-.14,0a2.25,2.25,0,0,1-2.89-1.24L82.79,54.72a5.73,5.73,0,0,0-3.14-3,5.26,5.26,0,0,0-3.88-.05,5.47,5.47,0,0,0-3,7.24l6.68,15.53a2.23,2.23,0,0,1,0,1.67,2.28,2.28,0,0,1-1.18,1.28l-.14,0a2.29,2.29,0,0,1-1.65,0,2.25,2.25,0,0,1-1.26-1.29L66.51,55.82a5.73,5.73,0,0,0-3.14-3,5.26,5.26,0,0,0-3.88-.05,5.45,5.45,0,0,0-3,7.24l6.66,15.48a2,2,0,0,1-1.06,2.63l-.47.2a2,2,0,0,1-2.62-1l-18.48-43a5.73,5.73,0,0,0-3.14-3,5.26,5.26,0,0,0-3.88-.05,5.47,5.47,0,0,0-3,7.24L52.31,89.29A2.26,2.26,0,0,1,51.52,92a2.38,2.38,0,0,1-2,.29,2.24,2.24,0,0,1-.91-.58l-.07-.08-4-4.61a5.34,5.34,0,0,0-2.08-1.48,5.5,5.5,0,0,0-4.18,0,5,5,0,0,0-1.41.89,5.43,5.43,0,0,0-.77,7.39Zm12.54-3.07,0,.07Zm27.1-14.91a.36.36,0,0,0,0,.09Zm3.17-1.45,0,.11Zm12.07-2s0,0,0,0l0,0Zm3.25-1.28Zm0,0Z"/><path class="cls-1" d="M11.7,59.47a2,2,0,0,1-1.43-3.4l9.38-9.57a2,2,0,0,1,2.86,2.8l-9.38,9.57A2,2,0,0,1,11.7,59.47Z"/><path class="cls-1" d="M47.67,22.8a2,2,0,0,1-1.43-3.4L55.6,9.86a2,2,0,1,1,2.86,2.8L49.1,22.2A2,2,0,0,1,47.67,22.8Z"/><path class="cls-1" d="M20.8,23.05a2,2,0,0,1-1.4-.57L9.86,13.13a2,2,0,0,1,2.8-2.86l9.54,9.35a2,2,0,0,1-1.4,3.43Z"/><path class="cls-1" d="M34.18,17.36a2,2,0,0,1-2-2L32.06,2a2,2,0,0,1,4,0l.12,13.36a2,2,0,0,1-2,2Z"/><path class="cls-1" d="M53.33,36.18a2,2,0,0,1,0-4l13.4-.12h0a2,2,0,0,1,0,4l-13.4.12Z"/><path class="cls-1" d="M2,36.67a2,2,0,0,1,0-4l13.36-.13h0a2,2,0,0,1,0,4L2,36.67Z"/></g></g></svg>