<svg width="1455" height="255" viewBox="0 0 1455 255" fill="none" xmlns="http://www.w3.org/2000/svg">
<g clip-path="url(#clip0_1497_13)">
<path d="M91.52 254.187C73.1 254.187 57 250.377 43.24 242.747C29.47 235.127 18.82 224.377 11.3 210.507C3.77 196.647 0.01 180.307 0.01 161.477C0.01 142.647 3.77 126.317 11.3 112.447C18.83 98.5875 29.47 87.8375 43.24 80.2075C57.01 72.5875 73.1 68.7675 91.52 68.7675C109.94 68.7675 126.83 72.5375 140.4 80.0575C153.97 87.5875 164.47 98.2875 171.9 112.147C179.33 126.017 183.04 142.457 183.04 161.467C183.04 180.477 179.33 196.677 171.9 210.637C164.47 224.597 153.92 235.347 140.26 242.877C126.59 250.407 110.35 254.167 91.53 254.167L91.52 254.187ZM91.52 225.067C109.94 225.067 124.25 219.477 134.45 208.277C144.65 197.087 149.75 181.487 149.75 161.477C149.75 141.467 144.65 125.627 134.45 114.527C124.25 103.437 109.94 97.8875 91.52 97.8875C73.1 97.8875 59.03 103.487 48.73 114.677C38.43 125.867 33.28 141.467 33.28 161.477C33.28 181.487 38.43 197.087 48.73 208.277C59.03 219.467 73.29 225.067 91.52 225.067Z" fill="#232628"/>
<path d="M401.15 250.627V4.66748H433.22V250.617H401.15V250.627Z" fill="#232628"/>
<path d="M332.53 74.7675L282.96 138.337L233.4 74.7675H194.12L260.33 160.317L190.55 250.627H232.27L371.19 74.7675H332.53Z" fill="#232628"/>
<path d="M370.04 213.347H332.9V250.617H370.04V213.347Z" fill="#232628"/>
<path d="M332.9 176.078H295.76V213.348H332.9V176.078Z" fill="#232628"/>
<path d="M623.23 213.347V136.817C623.23 114.827 616.64 97.9975 603.47 86.3075C590.3 74.6175 571.33 68.7775 546.57 68.7775C524.78 68.7775 506.9 73.6375 492.94 83.3375C478.98 93.0475 470.51 106.717 467.54 124.337H501.12C506.27 105.717 521.22 96.4075 545.99 96.4075C576.3 96.4075 591.45 110.177 591.45 137.707V145.727H530.54C508.95 145.727 492.41 150.437 480.92 159.837C469.43 169.247 463.69 182.467 463.69 199.507C463.69 216.547 469.48 228.877 481.07 238.877C492.66 248.877 508.55 253.877 528.76 253.877C542.82 253.877 555.2 251.147 565.9 245.707C576.6 240.257 585.01 232.777 591.16 223.277H603.37V250.617H640.51V213.347H623.25H623.23ZM591.44 178.127C591.44 187.037 588.86 195.267 583.71 202.787C578.56 210.317 571.53 216.257 562.61 220.617C553.7 224.977 543.89 227.157 533.19 227.157C521.31 227.157 511.99 224.537 505.26 219.287C498.52 214.037 495.16 206.957 495.16 198.047C495.16 179.427 507.64 170.117 532.6 170.117H591.43V178.137L591.44 178.127Z" fill="#232628"/>
<path d="M784.73 254.768C766.83 254.768 751.56 250.988 738.94 243.428C726.31 235.868 716.66 225.128 710 211.208C703.33 197.288 700.01 180.778 700.01 161.688C700.01 142.598 703.29 126.088 709.85 112.168C716.41 98.2475 725.81 87.5075 738.04 79.9475C750.27 72.3875 764.84 68.6075 781.75 68.6075C796.07 68.6075 808.45 71.3975 818.89 76.9575C829.33 82.5275 837.24 90.5775 842.61 101.128H843.8V0.587524H877.21V216.578H894.51V251.188H858.71V223.738H846.18C840.21 233.878 832.06 241.588 821.72 246.858C811.38 252.128 799.05 254.768 784.73 254.768ZM789.8 226.128C806.11 226.128 819.19 221.458 829.03 212.108C838.87 202.758 843.8 190.328 843.8 174.818V148.568C843.8 133.058 838.88 120.628 829.03 111.278C819.19 101.928 806.11 97.2575 789.8 97.2575C771.9 97.2575 758.03 102.928 748.18 114.268C738.34 125.608 733.41 141.418 733.41 161.698C733.41 181.978 738.33 197.798 748.18 209.128C758.03 220.468 771.9 226.138 789.8 226.138V226.128Z" fill="#644BF5"/>
<path d="M1000.07 254.768C981.57 254.768 965.41 250.938 951.59 243.278C937.76 235.628 927.08 224.828 919.52 210.908C911.96 196.988 908.18 180.578 908.18 161.688C908.18 142.798 911.96 126.388 919.52 112.468C927.08 98.5475 937.77 87.7575 951.59 80.0975C965.41 72.4475 981.57 68.6075 1000.07 68.6075C1018.57 68.6075 1035.52 72.3875 1049.15 79.9475C1062.77 87.5075 1073.32 98.2475 1080.77 112.168C1088.23 126.088 1091.96 142.598 1091.96 161.688C1091.96 180.778 1088.23 197.038 1080.77 211.058C1073.31 225.078 1062.72 235.868 1049 243.428C1035.28 250.988 1018.97 254.768 1000.07 254.768ZM1000.07 225.528C1018.57 225.528 1032.93 219.908 1043.18 208.668C1053.42 197.438 1058.54 181.768 1058.54 161.678C1058.54 141.588 1053.42 125.678 1043.18 114.538C1032.93 103.398 1018.57 97.8275 1000.07 97.8275C981.57 97.8275 967.45 103.448 957.11 114.688C946.77 125.928 941.6 141.588 941.6 161.678C941.6 181.768 946.77 197.428 957.11 208.668C967.45 219.908 981.77 225.528 1000.07 225.528Z" fill="#644BF5"/>
<path d="M1200.33 254.768C1182.23 254.768 1166.42 250.938 1152.9 243.278C1139.37 235.628 1128.88 224.828 1121.43 210.908C1113.97 196.988 1110.24 180.578 1110.24 161.688C1110.24 142.798 1113.92 126.388 1121.28 112.468C1128.64 98.5475 1139.08 87.7575 1152.61 80.0975C1166.13 72.4475 1182.04 68.6075 1200.34 68.6075C1222.22 68.6075 1240.47 74.0275 1255.08 84.8675C1269.7 95.7075 1279.29 111.268 1283.87 131.558H1250.16C1246.78 120.028 1240.96 111.518 1232.71 106.048C1224.46 100.578 1213.66 97.8475 1200.34 97.8475C1182.64 97.8475 1168.76 103.418 1158.72 114.558C1148.67 125.698 1143.65 141.408 1143.65 161.698C1143.65 181.988 1148.67 197.448 1158.72 208.688C1168.76 219.928 1182.63 225.548 1200.34 225.548C1227.98 225.548 1244.99 213.318 1251.36 188.848H1285.07C1280.69 210.128 1271.15 226.438 1256.43 237.778C1241.71 249.118 1223.02 254.778 1200.34 254.778L1200.33 254.768Z" fill="#644BF5"/>
<path d="M1380.32 254.768C1355.46 254.768 1335.87 249.598 1321.55 239.258C1307.23 228.918 1299.37 214.498 1297.98 195.998H1331.1C1332.49 206.938 1337.26 214.998 1345.42 220.168C1353.57 225.338 1365.6 227.928 1381.52 227.928C1409.36 227.928 1423.29 219.178 1423.29 201.678C1423.29 194.518 1421.15 188.998 1416.88 185.118C1412.6 181.238 1405.39 178.408 1395.25 176.618L1356.17 169.458C1322.95 163.298 1306.35 147.488 1306.35 122.018C1306.35 105.508 1312.61 92.4876 1325.14 82.9376C1337.67 73.3876 1354.77 68.6176 1376.45 68.6176C1398.13 68.6176 1416.77 73.4976 1430 83.2376C1443.22 92.9876 1450.73 106.708 1452.52 124.408H1420C1418.01 114.468 1413.38 107.108 1406.13 102.328C1398.87 97.5576 1388.68 95.1676 1375.55 95.1676C1363.42 95.1676 1354.02 97.2576 1347.36 101.428C1340.69 105.608 1337.37 111.678 1337.37 119.628C1337.37 125.798 1339.5 130.618 1343.78 134.098C1348.05 137.578 1354.97 140.218 1364.51 142.008L1403.59 149.468C1421.09 152.648 1433.92 158.318 1442.08 166.468C1450.23 174.628 1454.31 185.558 1454.31 199.288C1454.31 216.788 1447.94 230.418 1435.22 240.158C1422.49 249.908 1404.19 254.778 1380.33 254.778L1380.32 254.768Z" fill="#644BF5"/>
</g>
<defs>
<clipPath id="clip0_1497_13">
<rect width="1454.31" height="254.18" fill="white" transform="translate(0 0.587524)"/>
</clipPath>
</defs>
</svg>
