<svg width="1455" height="255" viewBox="0 0 1455 255" fill="none" xmlns="http://www.w3.org/2000/svg">
<g clip-path="url(#clip0_1497_27)">
<path d="M91.52 253.6C73.1 253.6 57 249.79 43.24 242.16C29.47 234.54 18.82 223.79 11.3 209.92C3.77 196.06 0.01 179.72 0.01 160.89C0.01 142.06 3.77 125.73 11.3 111.86C18.83 97.9999 29.47 87.2499 43.24 79.6199C57.01 71.9999 73.1 68.1799 91.52 68.1799C109.94 68.1799 126.83 71.9499 140.4 79.4699C153.97 86.9999 164.47 97.6999 171.9 111.56C179.33 125.43 183.04 141.87 183.04 160.88C183.04 179.89 179.33 196.09 171.9 210.05C164.47 224.01 153.92 234.76 140.26 242.29C126.59 249.82 110.35 253.58 91.53 253.58L91.52 253.6ZM91.52 224.48C109.94 224.48 124.25 218.89 134.45 207.69C144.65 196.5 149.75 180.9 149.75 160.89C149.75 140.88 144.65 125.04 134.45 113.94C124.25 102.85 109.94 97.2999 91.52 97.2999C73.1 97.2999 59.03 102.9 48.73 114.09C38.43 125.28 33.28 140.88 33.28 160.89C33.28 180.9 38.43 196.5 48.73 207.69C59.03 218.88 73.29 224.48 91.52 224.48Z" fill="#EEEEEE"/>
<path d="M401.15 250.04V4.07996H433.22V250.03H401.15V250.04Z" fill="#EEEEEE"/>
<path d="M332.53 74.1799L282.96 137.75L233.4 74.1799H194.12L260.33 159.73L190.55 250.04H232.27L371.19 74.1799H332.53Z" fill="#EEEEEE"/>
<path d="M370.04 212.76H332.9V250.03H370.04V212.76Z" fill="#EEEEEE"/>
<path d="M332.9 175.49H295.76V212.76H332.9V175.49Z" fill="#EEEEEE"/>
<path d="M623.23 212.76V136.23C623.23 114.24 616.64 97.4099 603.47 85.7199C590.3 74.0299 571.33 68.1899 546.57 68.1899C524.78 68.1899 506.9 73.0499 492.94 82.7499C478.98 92.4599 470.51 106.13 467.54 123.75H501.12C506.27 105.13 521.22 95.8199 545.99 95.8199C576.3 95.8199 591.45 109.59 591.45 137.12V145.14H530.54C508.95 145.14 492.41 149.85 480.92 159.25C469.43 168.66 463.69 181.88 463.69 198.92C463.69 215.96 469.48 228.29 481.07 238.29C492.66 248.29 508.55 253.29 528.76 253.29C542.82 253.29 555.2 250.56 565.9 245.12C576.6 239.67 585.01 232.19 591.16 222.69H603.37V250.03H640.51V212.76H623.25H623.23ZM591.44 177.54C591.44 186.45 588.86 194.68 583.71 202.2C578.56 209.73 571.53 215.67 562.61 220.03C553.7 224.39 543.89 226.57 533.19 226.57C521.31 226.57 511.99 223.95 505.26 218.7C498.52 213.45 495.16 206.37 495.16 197.46C495.16 178.84 507.64 169.53 532.6 169.53H591.43V177.55L591.44 177.54Z" fill="#EEEEEE"/>
<path d="M784.73 254.18C766.83 254.18 751.56 250.4 738.94 242.84C726.31 235.28 716.66 224.54 710 210.62C703.33 196.7 700.01 180.19 700.01 161.1C700.01 142.01 703.29 125.5 709.85 111.58C716.41 97.66 725.81 86.92 738.04 79.36C750.27 71.8 764.84 68.02 781.75 68.02C796.07 68.02 808.45 70.81 818.89 76.37C829.33 81.94 837.24 89.99 842.61 100.54H843.8V0H877.21V215.99H894.51V250.6H858.71V223.15H846.18C840.21 233.29 832.06 241 821.72 246.27C811.38 251.54 799.05 254.18 784.73 254.18ZM789.8 225.54C806.11 225.54 819.19 220.87 829.03 211.52C838.87 202.17 843.8 189.74 843.8 174.23V147.98C843.8 132.47 838.88 120.04 829.03 110.69C819.19 101.34 806.11 96.67 789.8 96.67C771.9 96.67 758.03 102.34 748.18 113.68C738.34 125.02 733.41 140.83 733.41 161.11C733.41 181.39 738.33 197.21 748.18 208.54C758.03 219.88 771.9 225.55 789.8 225.55V225.54Z" fill="#644BF5"/>
<path d="M1000.07 254.18C981.57 254.18 965.41 250.35 951.59 242.69C937.76 235.04 927.08 224.24 919.52 210.32C911.96 196.4 908.18 179.99 908.18 161.1C908.18 142.21 911.96 125.8 919.52 111.88C927.08 97.96 937.77 87.17 951.59 79.51C965.41 71.86 981.57 68.02 1000.07 68.02C1018.57 68.02 1035.52 71.8 1049.15 79.36C1062.77 86.92 1073.32 97.66 1080.77 111.58C1088.23 125.5 1091.96 142.01 1091.96 161.1C1091.96 180.19 1088.23 196.45 1080.77 210.47C1073.31 224.49 1062.72 235.28 1049 242.84C1035.28 250.4 1018.97 254.18 1000.07 254.18ZM1000.07 224.94C1018.57 224.94 1032.93 219.32 1043.18 208.08C1053.42 196.85 1058.54 181.18 1058.54 161.09C1058.54 141 1053.42 125.09 1043.18 113.95C1032.93 102.81 1018.57 97.24 1000.07 97.24C981.57 97.24 967.45 102.86 957.11 114.1C946.77 125.34 941.6 141 941.6 161.09C941.6 181.18 946.77 196.84 957.11 208.08C967.45 219.32 981.77 224.94 1000.07 224.94Z" fill="#644BF5"/>
<path d="M1200.33 254.18C1182.23 254.18 1166.42 250.35 1152.9 242.69C1139.37 235.04 1128.88 224.24 1121.43 210.32C1113.97 196.4 1110.24 179.99 1110.24 161.1C1110.24 142.21 1113.92 125.8 1121.28 111.88C1128.64 97.96 1139.08 87.17 1152.61 79.51C1166.13 71.86 1182.04 68.02 1200.34 68.02C1222.22 68.02 1240.47 73.44 1255.08 84.28C1269.7 95.12 1279.29 110.68 1283.87 130.97H1250.16C1246.78 119.44 1240.96 110.93 1232.71 105.46C1224.46 99.99 1213.66 97.26 1200.34 97.26C1182.64 97.26 1168.76 102.83 1158.72 113.97C1148.67 125.11 1143.65 140.82 1143.65 161.11C1143.65 181.4 1148.67 196.86 1158.72 208.1C1168.76 219.34 1182.63 224.96 1200.34 224.96C1227.98 224.96 1244.99 212.73 1251.36 188.26H1285.07C1280.69 209.54 1271.15 225.85 1256.43 237.19C1241.71 248.53 1223.02 254.19 1200.34 254.19L1200.33 254.18Z" fill="#644BF5"/>
<path d="M1380.32 254.18C1355.46 254.18 1335.87 249.01 1321.55 238.67C1307.23 228.33 1299.37 213.91 1297.98 195.41H1331.1C1332.49 206.35 1337.26 214.41 1345.42 219.58C1353.57 224.75 1365.6 227.34 1381.52 227.34C1409.36 227.34 1423.29 218.59 1423.29 201.09C1423.29 193.93 1421.15 188.41 1416.88 184.53C1412.6 180.65 1405.39 177.82 1395.25 176.03L1356.17 168.87C1322.95 162.71 1306.35 146.9 1306.35 121.43C1306.35 104.92 1312.61 91.9 1325.14 82.35C1337.67 72.8 1354.77 68.03 1376.45 68.03C1398.13 68.03 1416.77 72.91 1430 82.65C1443.22 92.4 1450.73 106.12 1452.52 123.82H1420C1418.01 113.88 1413.38 106.52 1406.13 101.74C1398.87 96.97 1388.68 94.58 1375.55 94.58C1363.42 94.58 1354.02 96.67 1347.36 100.84C1340.69 105.02 1337.37 111.09 1337.37 119.04C1337.37 125.21 1339.5 130.03 1343.78 133.51C1348.05 136.99 1354.97 139.63 1364.51 141.42L1403.59 148.88C1421.09 152.06 1433.92 157.73 1442.08 165.88C1450.23 174.04 1454.31 184.97 1454.31 198.7C1454.31 216.2 1447.94 229.83 1435.22 239.57C1422.49 249.32 1404.19 254.19 1380.33 254.19L1380.32 254.18Z" fill="#644BF5"/>
</g>
<defs>
<clipPath id="clip0_1497_27">
<rect width="1454.31" height="254.18" fill="white"/>
</clipPath>
</defs>
</svg>
