<svg xmlns="http://www.w3.org/2000/svg" viewBox="0 0 122.5 133.51"><defs><style>.cls-1{fill:#b3b3b3;}</style></defs><g id="Layer_2" data-name="Layer 2"><g id="Layer_1-2" data-name="Layer 1"><path class="cls-1" d="M94.47,33.52H65.94a2,2,0,0,1-2-2V2a2,2,0,0,1,4,0V29.52H94.47a2,2,0,0,1,0,4Z"/><path d="M26.67,123.92H6a6,6,0,0,1-6-6V6A6,6,0,0,1,6,0H66a8.67,8.67,0,0,1,6.2,2.57L95.69,26.11a8.67,8.67,0,0,1,2.57,6.2V44.85a2,2,0,1,1-4,0V32.31a4.78,4.78,0,0,0-1.39-3.38L69.33,5.39A4.78,4.78,0,0,0,66,4H6A2,2,0,0,0,4,6V117.92a2,2,0,0,0,2,2H26.67a2,2,0,0,1,0,4Z"/><path class="cls-1" d="M90.35,67.81H42.65a2,2,0,0,1,0-4h47.7a2,2,0,0,1,0,4Z"/><path d="M110.05,77.5a11.69,11.69,0,1,1,11.69-11.69A11.7,11.7,0,0,1,110.05,77.5Zm0-19.38a7.69,7.69,0,1,0,7.69,7.69A7.7,7.7,0,0,0,110.05,58.12Z"/><path class="cls-1" d="M120.5,123.82H72a2,2,0,0,1,0-4H120.5a2,2,0,0,1,0,4Z"/><path d="M52.34,133.51A11.69,11.69,0,1,1,64,121.82,11.7,11.7,0,0,1,52.34,133.51Zm0-19.38A7.69,7.69,0,1,0,60,121.82,7.7,7.7,0,0,0,52.34,114.13Z"/><path class="cls-1" d="M120.5,95.59H101.05a2,2,0,1,1,0-4H120.5a2,2,0,0,1,0,4Z"/><path class="cls-1" d="M61.66,95.59h-19a2,2,0,0,1,0-4h19a2,2,0,0,1,0,4Z"/><path d="M81.35,105.28A11.69,11.69,0,1,1,93,93.59,11.7,11.7,0,0,1,81.35,105.28Zm0-19.38A7.69,7.69,0,1,0,89,93.59,7.7,7.7,0,0,0,81.35,85.9Z"/></g></g></svg>