<svg width="256" height="256" viewBox="0 0 256 256" fill="none" xmlns="http://www.w3.org/2000/svg">
<rect width="256" height="256" rx="128" fill="#232628"/>
<path d="M78.871 176.952C69.1407 176.952 60.6266 174.933 53.3476 170.914C46.0685 166.896 40.4362 161.214 36.4692 153.887C32.4835 146.56 30.5 137.944 30.5 128C30.5 118.056 32.4835 109.44 36.4692 102.113C40.4549 94.786 46.0685 89.1226 53.3476 85.0854C60.6266 81.0668 69.1407 79.0482 78.871 79.0482C88.6014 79.0482 97.5271 81.0295 104.713 85.0107C111.879 88.9918 117.437 94.6365 121.367 101.963C125.296 109.29 127.261 117.963 127.261 128C127.261 138.037 125.296 146.597 121.367 153.962C117.437 161.345 111.861 167.008 104.638 170.989C97.4149 174.97 88.8259 176.952 78.871 176.952ZM78.871 161.588C88.6014 161.588 96.1798 158.634 101.569 152.728C106.958 146.822 109.653 138.579 109.653 128.019C109.653 117.458 106.958 109.085 101.569 103.234C96.1798 97.3841 88.6014 94.4496 78.871 94.4496C69.1407 94.4496 61.6932 97.4027 56.248 103.309C50.8027 109.215 48.0708 117.458 48.0708 128.019C48.0708 138.579 50.784 146.822 56.248 152.728C61.6932 158.634 69.2343 161.588 78.871 161.588Z" fill="white"/>
<path d="M205.068 82.2069L178.852 115.776L152.655 82.2069H131.884L166.895 127.383L129.994 175.082H152.056L225.502 82.2069H205.068Z" fill="white"/>
<path d="M224.885 155.401H205.256V175.083H224.885V155.401Z" fill="white"/>
<path d="M205.256 135.72H185.627V155.401H205.256V135.72Z" fill="white"/>
</svg>
