<svg xmlns="http://www.w3.org/2000/svg" viewBox="0 0 142.3 140.57"><defs><style>.cls-1{fill:#b3b3b3;}</style></defs><g id="Layer_2" data-name="Layer 2"><g id="Layer_1-2" data-name="Layer 1"><path d="M58.84,60.84H2a2,2,0,0,1-2-2V2A2,2,0,0,1,2,0H58.84a2,2,0,0,1,2,2V58.84A2,2,0,0,1,58.84,60.84ZM4,56.84H56.84V4H4Z"/><path d="M140.3,140.57H70.93a2,2,0,0,1-1.73-1,2,2,0,0,1,0-2L103.87,76a2,2,0,0,1,3.48,0L142,137.59a2,2,0,0,1-1.74,3Zm-66-4h62.53L105.61,81Z"/><path class="cls-1" d="M20.2,136.87a2,2,0,0,1-1.48-3.35L132,9.25a2,2,0,0,1,3,2.7L21.68,136.22A2,2,0,0,1,20.2,136.87Z"/></g></g></svg>