<svg xmlns="http://www.w3.org/2000/svg" viewBox="0 0 143.02 135.26"><defs><style>.cls-1{fill:#b3b3b3;}</style></defs><g id="Layer_2" data-name="Layer 2"><g id="Layer_1-2" data-name="Layer 1"><path class="cls-1" d="M86.54,38.85H15.64a2,2,0,0,1,0-4h70.9a2,2,0,0,1,0,4Z"/><path class="cls-1" d="M122.53,38.85H96.91a2,2,0,0,1,0-4h25.62a2,2,0,0,1,0,4Z"/><path class="cls-1" d="M43.82,79H15.64a2,2,0,0,1,0-4H43.82a2,2,0,0,1,0,4Z"/><path class="cls-1" d="M122.83,79h-15a2,2,0,0,1,0-4h15a2,2,0,0,1,0,4Z"/><path d="M110,101.66H39a3.94,3.94,0,0,1-3.72-5.26L53,46.14A3.95,3.95,0,0,1,60.36,46L74,79.43,88.61,25.77a3.91,3.91,0,0,1,3.81-2.91h0a3.88,3.88,0,0,1,3.78,3l17.51,70.71a.76.76,0,0,1,.06.2,3.95,3.95,0,0,1-3.83,4.89ZM56.71,47.6,39.05,97.73l70.86-.07L92.42,27,77.8,80.64a3.94,3.94,0,0,1-7.46.44Z"/><path d="M141,121.62H20.57a6.94,6.94,0,0,1-6.93-6.93V2a2,2,0,0,1,4,0V114.69a2.93,2.93,0,0,0,2.93,2.93H141a2,2,0,0,1,0,4Z"/><path d="M29.28,17.64a2,2,0,0,1-1.41-.59L15.64,4.83,3.41,17.05a2,2,0,0,1-2.82,0,2,2,0,0,1,0-2.82L14.23.59a2,2,0,0,1,2.82,0L30.69,14.23a2,2,0,0,1-1.41,3.41Z"/><path d="M127.38,135.26a2,2,0,0,1-1.41-3.41l12.22-12.23L126,107.39a2,2,0,1,1,2.82-2.82l13.64,13.64a2,2,0,0,1,0,2.82l-13.64,13.64A2,2,0,0,1,127.38,135.26Z"/></g></g></svg>