<svg xmlns="http://www.w3.org/2000/svg" viewBox="0 0 158.36 157.3"><defs><style>.cls-1{fill:#b3b3b3;}</style></defs><g id="Layer_2" data-name="Layer 2"><g id="Layer_1-2" data-name="Layer 1"><path d="M79.18,60.74c-15.92,0-32-4-32-11.52s16.12-11.52,32-11.52,32,4,32,11.52S95.1,60.74,79.18,60.74Zm0-19c-17.12,0-28,4.45-28,7.52s10.92,7.52,28,7.52,28-4.45,28-7.52S96.3,41.7,79.18,41.7Z"/><path d="M79.18,80.36c-15.92,0-32-4-32-11.52V49.22a2,2,0,0,1,4,0V68.84c0,3.06,10.92,7.52,28,7.52s28-4.46,28-7.52V49.22a2,2,0,0,1,4,0V68.84C111.22,76.4,95.1,80.36,79.18,80.36Z"/><path class="cls-1" d="M65,69.73l-.29,0a30.61,30.61,0,0,1-6.85-1.78,2,2,0,0,1,1.55-3.69,26.74,26.74,0,0,0,5.87,1.51,2,2,0,0,1-.28,4Z"/><path d="M79.18,100c-15.92,0-32-4-32-11.52V68.84a2,2,0,0,1,4,0V88.46c0,3.06,10.92,7.52,28,7.52s28-4.46,28-7.52V68.84a2,2,0,0,1,4,0V88.46C111.22,96,95.1,100,79.18,100Z"/><path class="cls-1" d="M65,89.34a1.32,1.32,0,0,1-.28,0,30.3,30.3,0,0,1-6.86-1.77,2,2,0,0,1,1.55-3.69,26.83,26.83,0,0,0,5.87,1.5,2,2,0,0,1-.28,4Z"/><path d="M79.18,119.59c-15.92,0-32-4-32-11.51V88.46a2,2,0,0,1,4,0v19.62c0,3.06,10.92,7.51,28,7.51s28-4.45,28-7.51V88.46a2,2,0,0,1,4,0v19.62C111.22,115.64,95.1,119.59,79.18,119.59Z"/><path class="cls-1" d="M65,109a1.46,1.46,0,0,1-.29,0,30.3,30.3,0,0,1-6.85-1.77,2,2,0,0,1,1.55-3.69,26.42,26.42,0,0,0,5.87,1.5,2,2,0,0,1-.28,4Z"/><path d="M140.75,80.65H109.22a2,2,0,0,1,0-4h31.53a2,2,0,0,1,0,4Z"/><path d="M131.61,54.68H109.22a2,2,0,0,1,0-4h20.39V17.61a2,2,0,0,1,4,0V52.68A2,2,0,0,1,131.61,54.68Z"/><path class="cls-1" d="M131.61,19.61a9.81,9.81,0,1,1,9.81-9.8A9.81,9.81,0,0,1,131.61,19.61Zm0-15.61a5.81,5.81,0,1,0,5.81,5.81A5.81,5.81,0,0,0,131.61,4Z"/><path d="M131.61,141.68a2,2,0,0,1-2-2V106.62H109.22a2,2,0,0,1,0-4h22.39a2,2,0,0,1,2,2v35.06A2,2,0,0,1,131.61,141.68Z"/><path class="cls-1" d="M131.61,157.3a9.81,9.81,0,1,1,9.81-9.81A9.81,9.81,0,0,1,131.61,157.3Zm0-15.62a5.81,5.81,0,1,0,5.81,5.81A5.81,5.81,0,0,0,131.61,141.68Z"/><path d="M49.14,80.65H17.61a2,2,0,0,1,0-4H49.14a2,2,0,0,1,0,4Z"/><path d="M26.75,141.68a2,2,0,0,1-2-2V104.62a2,2,0,0,1,2-2H49.14a2,2,0,0,1,0,4H28.75v33.06A2,2,0,0,1,26.75,141.68Z"/><path class="cls-1" d="M26.75,157.3a9.81,9.81,0,1,1,9.8-9.81A9.82,9.82,0,0,1,26.75,157.3Zm0-15.62a5.81,5.81,0,1,0,5.8,5.81A5.82,5.82,0,0,0,26.75,141.68Z"/><path d="M49.14,54.68H26.75a2,2,0,0,1-2-2V17.61a2,2,0,0,1,4,0V50.68H49.14a2,2,0,0,1,0,4Z"/><path class="cls-1" d="M26.75,19.61a9.81,9.81,0,1,1,9.8-9.8A9.82,9.82,0,0,1,26.75,19.61ZM26.75,4a5.81,5.81,0,1,0,5.8,5.81A5.81,5.81,0,0,0,26.75,4Z"/><path class="cls-1" d="M156.36,88.45H140.75a2,2,0,0,1-2-2V70.84a2,2,0,0,1,2-2h15.61a2,2,0,0,1,2,2V86.45A2,2,0,0,1,156.36,88.45Zm-13.61-4h11.61V72.84H142.75Z"/><path class="cls-1" d="M17.61,88.45H2a2,2,0,0,1-2-2V70.84a2,2,0,0,1,2-2H17.61a2,2,0,0,1,2,2V86.45A2,2,0,0,1,17.61,88.45ZM4,84.45H15.61V72.84H4Z"/></g></g></svg>