<svg xmlns="http://www.w3.org/2000/svg" viewBox="0 0 123.64 134.24"><defs><style>.cls-1{fill:#b3b3b3;}</style></defs><g id="Layer_2" data-name="Layer 2"><g id="Layer_1-2" data-name="Layer 1"><path class="cls-1" d="M10.08,44.58a2,2,0,0,1-1.29-3.64L47.62,9.78A2,2,0,1,1,50.18,13L11.35,44.13A2,2,0,0,1,10.08,44.58Z"/><path class="cls-1" d="M74.78,125.62A2,2,0,0,1,73.49,122l39.36-31.59a2,2,0,1,1,2.56,3.19L76.05,125.17A2,2,0,0,1,74.78,125.62Z"/><path class="cls-1" d="M48.7,92.27a2,2,0,0,1-1.28-3.64L72.07,68.85A2,2,0,1,1,74.63,72L50,91.82A2,2,0,0,1,48.7,92.27Z"/><path class="cls-1" d="M36.28,77.82A2,2,0,0,1,35,74.18L59.59,54.44a2,2,0,1,1,2.56,3.19L37.56,77.37A2,2,0,0,1,36.28,77.82Z"/><path d="M121.6,100.17a2,2,0,0,1-1.6-.77c-8.89-11.07-23.31-8.73-38.57-6.24-15.76,2.56-32,5.22-42.43-7.72s-4.27-28.27,1.65-43.09C46.38,28,51.79,14.41,42.9,3.33A2,2,0,1,1,46.09.76c10.39,13,4.27,28.28-1.64,43.1-5.74,14.37-11.15,27.94-2.26,39s23.31,8.73,38.58,6.24c15.75-2.56,32-5.22,42.42,7.73a2,2,0,0,1-1.59,3.32Z"/><path d="M79.16,134.24a2,2,0,0,1-1.6-.77c-10.38-12.94-4.27-28.26,1.64-43.08,2.59-6.49,5.27-13.2,6.39-19.45a2,2,0,1,1,4,.73c-1.2,6.65-4,13.56-6.62,20.24-5.73,14.36-11.14,27.93-2.25,39a2,2,0,0,1-1.59,3.32Z"/><path d="M23.66,47.24C14.75,47.24,6.57,45,.45,37.39a2,2,0,0,1,3.19-2.55C12.53,45.92,27,43.57,42.21,41.08c7.1-1.16,14.43-2.35,21.19-2.08a2.05,2.05,0,0,1,2,2.13,2,2,0,0,1-2.13,2c-6.34-.26-13.47.9-20.36,2C36.41,46.17,29.86,47.24,23.66,47.24Z"/><path d="M85.41,50.24a2,2,0,0,1-1.28-3.64L97.49,35.87a2,2,0,1,1,2.56,3.19L86.69,49.79A2,2,0,0,1,85.41,50.24Z"/><path d="M78.1,41.12a2,2,0,0,1-.54-.07,2,2,0,0,1-1.44-2.51L80.57,22a2,2,0,1,1,4,1.07L80.07,39.61A2,2,0,0,1,78.1,41.12Z"/><path d="M92.73,59.35a2,2,0,0,1-.09-4.09l17.11-.75a2,2,0,1,1,.18,4.09l-17.11.75Z"/></g></g></svg>