<svg xmlns="http://www.w3.org/2000/svg" viewBox="0 0 125.77 134.57"><defs><style>.cls-1{fill:#b3b3b3;}</style></defs><g id="Layer_2" data-name="Layer 2"><g id="Layer_1-2" data-name="Layer 1"><path class="cls-1" d="M62.88,71.38A2,2,0,0,1,61.69,71a39.66,39.66,0,0,1,0-62.58,1.94,1.94,0,0,1,2.39,0,39.68,39.68,0,0,1,0,62.58A2,2,0,0,1,62.88,71.38Zm0-59a35.79,35.79,0,0,0,0,54.52,35.79,35.79,0,0,0,0-54.52Z"/><path d="M86.09,79.36a1.94,1.94,0,0,1,0-3.88,35.8,35.8,0,0,0,0-71.6,35.43,35.43,0,0,0-22,7.58l-1.19.93-1.19-.93a35.43,35.43,0,0,0-22-7.58,35.8,35.8,0,1,0,0,71.6,35.43,35.43,0,0,0,22-7.58L62.88,67l1.19.93a36.39,36.39,0,0,0,4.51,3,1.94,1.94,0,0,1-1.89,3.39,40,40,0,0,1-3.81-2.43,39.25,39.25,0,0,1-23.2,7.5A39.68,39.68,0,1,1,39.69,0a39.25,39.25,0,0,1,23.2,7.5A39.27,39.27,0,0,1,86.09,0a39.68,39.68,0,0,1,0,79.36Z"/><path d="M54,134.57H48.89a1.94,1.94,0,1,1,0-3.88H54a8.08,8.08,0,0,0,7.83-6.07L74.94,73.93a12,12,0,0,1,11.59-9h5.09a1.94,1.94,0,0,1,0,3.88H86.53A8.08,8.08,0,0,0,78.7,74.9L65.57,125.6A12,12,0,0,1,54,134.57Z"/><path d="M79,101.7H61.48a1.94,1.94,0,0,1,0-3.88H79a1.94,1.94,0,0,1,0,3.88Z"/><path d="M110.45,123.33a1.94,1.94,0,0,1-1.37-.57L95,108.64a1.94,1.94,0,0,1,2.74-2.74L111.82,120a1.94,1.94,0,0,1-1.37,3.31Z"/><path d="M96.33,123.33A1.94,1.94,0,0,1,95,120l14.12-14.12a1.94,1.94,0,0,1,2.74,2.74L97.7,122.76A1.92,1.92,0,0,1,96.33,123.33Z"/><path d="M90.11,132.16a1.9,1.9,0,0,1-1.45-.66,25.88,25.88,0,0,1,0-34.33,1.94,1.94,0,1,1,2.9,2.58,22,22,0,0,0,0,29.19,1.94,1.94,0,0,1-1.45,3.22Z"/><path d="M116.66,132.16a1.9,1.9,0,0,1-1.28-.49,1.92,1.92,0,0,1-.17-2.73,22,22,0,0,0,0-29.19,1.94,1.94,0,1,1,2.9-2.58,25.88,25.88,0,0,1,0,34.33A1.9,1.9,0,0,1,116.66,132.16Z"/></g></g></svg>