<svg xmlns="http://www.w3.org/2000/svg" viewBox="0 0 148.23 144.14"><defs><style>.cls-1{fill:#b3b3b3;}</style></defs><g id="Layer_2" data-name="Layer 2"><g id="Layer_1-2" data-name="Layer 1"><path d="M33.16,140.27A30.88,30.88,0,1,1,64,109.39,30.91,30.91,0,0,1,33.16,140.27Zm0-57.76A26.88,26.88,0,1,0,60,109.39,26.91,26.91,0,0,0,33.16,82.51Z"/><path d="M139.6,56.32H87.78a2,2,0,0,1-2-2V2.5a2,2,0,0,1,2-2H139.6a2,2,0,0,1,2,2V54.32A2,2,0,0,1,139.6,56.32Zm-49.82-4H137.6V4.5H89.78Z"/><path class="cls-1" d="M113.7,144.14a2,2,0,0,1-1.42-.58L79.75,111a2,2,0,0,1,0-2.83l32.53-32.53a2,2,0,0,1,2.83,0l32.54,32.53a2,2,0,0,1,0,2.83l-32.54,32.54A2,2,0,0,1,113.7,144.14ZM84,109.61l29.71,29.7,29.7-29.7L113.7,79.9Z"/><path d="M63,56.81H2a2,2,0,0,1-1.73-3L30.76,1a2,2,0,0,1,3.46,0L64.71,53.81a2,2,0,0,1-1.73,3Zm-57.52-4H59.52L32.49,6Z"/></g></g></svg>