<svg xmlns="http://www.w3.org/2000/svg" viewBox="0 0 144.9 145.97"><defs><style>.cls-1{isolation:isolate;}.cls-2{fill:#b3b3b3;}</style></defs><g id="Layer_2" data-name="Layer 2"><g id="Layer_1-2" data-name="Layer 1"><g class="cls-1"><path class="cls-2" d="M91.94,106.25a2,2,0,0,1-2-2V73.36A5.35,5.35,0,0,0,84.6,68H51.87a2,2,0,1,1,0-4H84.6a9.35,9.35,0,0,1,9.34,9.34v30.89A2,2,0,0,1,91.94,106.25Z"/></g><g class="cls-1"><path class="cls-2" d="M69.9,96a7.94,7.94,0,1,1,7.94-7.94A7.95,7.95,0,0,1,69.9,96Zm0-11.88a3.94,3.94,0,1,0,3.94,3.94A3.95,3.95,0,0,0,69.9,84.14Z"/></g><path d="M87.36,22.33a2,2,0,0,1-2-2V5.52A1.52,1.52,0,0,0,83.84,4H5.52A1.52,1.52,0,0,0,4,5.52V20.33a2,2,0,0,1-4,0V5.52A5.53,5.53,0,0,1,5.52,0H83.84a5.53,5.53,0,0,1,5.52,5.52V20.33A2,2,0,0,1,87.36,22.33Z"/><path d="M2,51.37a2,2,0,0,1-2-2V34.56A5.53,5.53,0,0,1,5.52,29H83.84a5.53,5.53,0,0,1,5.52,5.52V47.24a2,2,0,0,1-4,0V34.56A1.52,1.52,0,0,0,83.84,33H5.52A1.52,1.52,0,0,0,4,34.56V49.37A2,2,0,0,1,2,51.37Z"/><path d="M2,80.42a2,2,0,0,1-2-2V63.61a5.53,5.53,0,0,1,5.52-5.52H45a2,2,0,0,1,0,4H5.52A1.52,1.52,0,0,0,4,63.61V78.42A2,2,0,0,1,2,80.42Z"/><path d="M84.62,126.1A40.36,40.36,0,0,1,56,114.29h0a40.5,40.5,0,0,1,0-57.18,40.43,40.43,0,0,1,57.19,0,40.42,40.42,0,0,1-28.59,69ZM58.85,111.45A36.44,36.44,0,1,0,84.62,49.24h0a36.44,36.44,0,0,0-25.77,62.21Z"/><path d="M142.9,146a2,2,0,0,1-1.41-.59l-31.09-31.1a2,2,0,0,1,2.82-2.82l31.09,31.1A2,2,0,0,1,142.9,146Z"/></g></g></svg>