<svg xmlns="http://www.w3.org/2000/svg" viewBox="0 0 123.98 135.65"><defs><style>.cls-1{fill:#b3b3b3;}</style></defs><g id="Layer_2" data-name="Layer 2"><g id="Layer_1-2" data-name="Layer 1"><path class="cls-1" d="M76.2,135.65a2,2,0,0,1-1.36-.53L47.08,109.35a2,2,0,0,1,0-2.94L74.84,80.65a2,2,0,0,1,3.36,1.47V95.23H122a2,2,0,0,1,0,4H76.2a2,2,0,0,1-2-2V86.7L51.38,107.88,74.2,129.06V118.54a2,2,0,0,1,2-2H122a2,2,0,0,1,0,4H78.2v13.11a2,2,0,0,1-1.2,1.83A1.89,1.89,0,0,1,76.2,135.65Z"/><path d="M101.21,25.3a2,2,0,0,1-2-2V6.09A2.1,2.1,0,0,0,97.12,4h-91A2.1,2.1,0,0,0,4,6.09V23.3a2,2,0,0,1-4,0V6.09A6.09,6.09,0,0,1,6.09,0h91a6.09,6.09,0,0,1,6.09,6.09V23.3A2,2,0,0,1,101.21,25.3Z"/><path d="M101.21,59.06a2,2,0,0,1-2-2V39.85a2.1,2.1,0,0,0-2.09-2.09h-91A2.1,2.1,0,0,0,4,39.85V57.06a2,2,0,0,1-4,0V39.85a6.09,6.09,0,0,1,6.09-6.09h91a6.09,6.09,0,0,1,6.09,6.09V57.06A2,2,0,0,1,101.21,59.06Z"/><path class="cls-1" d="M18.86,26.28A7.14,7.14,0,1,1,26,19.14,7.14,7.14,0,0,1,18.86,26.28Zm0-10.28A3.14,3.14,0,1,0,22,19.14,3.15,3.15,0,0,0,18.86,16Z"/><path class="cls-1" d="M18.86,60A7.14,7.14,0,1,1,26,52.9,7.14,7.14,0,0,1,18.86,60Zm0-10.28A3.14,3.14,0,1,0,22,52.9,3.15,3.15,0,0,0,18.86,49.76Z"/><path class="cls-1" d="M18.86,94.4A7.14,7.14,0,1,1,26,87.26,7.14,7.14,0,0,1,18.86,94.4Zm0-10.28A3.14,3.14,0,1,0,22,87.26,3.15,3.15,0,0,0,18.86,84.12Z"/><path d="M36.26,106.39H6.09A6.09,6.09,0,0,1,0,100.3V73.6a6.09,6.09,0,0,1,6.09-6.09h91a6.09,6.09,0,0,1,6.09,6.09V86.81a2,2,0,0,1-4,0V73.6a2.1,2.1,0,0,0-2.09-2.09h-91A2.1,2.1,0,0,0,4,73.6v26.7a2.1,2.1,0,0,0,2.09,2.09H36.26a2,2,0,1,1,0,4Z"/></g></g></svg>