<?xml version="1.0" standalone="no"?>
<!DOCTYPE svg PUBLIC "-//W3C//DTD SVG 20010904//EN"
 "http://www.w3.org/TR/2001/REC-SVG-20010904/DTD/svg10.dtd">
<svg version="1.0" xmlns="http://www.w3.org/2000/svg"
 width="512.000000pt" height="512.000000pt" viewBox="0 0 512.000000 512.000000"
 preserveAspectRatio="xMidYMid meet">

<g transform="translate(0.000000,512.000000) scale(0.100000,-0.100000)"
fill="#000000" stroke="none">
<path d="M3115 4806 c-133 -31 -252 -85 -349 -158 l-59 -45 -62 23 c-119 43
-216 57 -364 51 -144 -5 -232 -23 -358 -73 -205 -81 -380 -236 -473 -419 l-32
-62 -73 -7 c-153 -14 -264 -65 -371 -172 -98 -97 -164 -239 -164 -354 0 -24
-5 -29 -33 -35 -50 -11 -148 -58 -214 -103 -132 -90 -243 -249 -283 -408 -24
-94 -26 -251 -5 -342 48 -204 198 -389 390 -482 123 -60 180 -70 413 -70 l202
0 0 -290 0 -290 -158 0 -157 0 -22 48 c-34 74 -78 118 -150 154 -56 28 -77 32
-139 32 -63 0 -81 -4 -140 -34 -233 -119 -233 -441 0 -560 59 -30 77 -34 140
-34 128 0 234 68 289 186 l21 47 214 3 c211 3 214 3 233 27 18 22 19 44 19
367 l0 344 225 0 225 0 0 -397 0 -398 -146 -146 -147 -147 -45 20 c-68 30
-172 29 -243 -4 -121 -55 -180 -142 -187 -274 -4 -72 -1 -89 21 -137 34 -74
88 -131 155 -164 78 -38 192 -39 267 -3 63 31 124 91 156 155 32 65 34 188 5
253 l-20 43 156 157 c86 86 161 167 167 179 8 15 11 155 11 442 l0 421 225 0
225 0 0 -614 0 -615 -55 -25 c-190 -87 -246 -335 -110 -494 43 -50 141 -100
211 -108 63 -8 151 16 210 57 199 137 170 444 -52 546 l-54 24 0 615 0 614
225 0 225 0 0 -421 c0 -287 3 -427 11 -442 6 -12 80 -92 165 -177 l153 -155
-19 -55 c-54 -154 7 -311 150 -389 59 -33 72 -36 145 -36 67 0 89 5 137 28
105 51 168 146 176 263 9 136 -54 246 -173 305 -57 28 -76 32 -139 32 -50 -1
-87 -7 -118 -21 l-45 -20 -147 147 -146 146 0 398 0 397 230 0 230 0 0 -343 0
-344 23 -21 c22 -21 31 -22 233 -22 l209 0 19 -47 c26 -62 87 -128 151 -161
43 -23 62 -27 140 -27 78 0 97 4 140 27 60 32 114 87 146 148 34 65 34 205 1
268 -37 69 -87 117 -154 148 -163 74 -345 5 -421 -158 l-22 -48 -157 0 -158 0
0 288 0 289 95 6 c440 29 823 364 911 797 22 109 15 330 -14 435 -74 272 -232
471 -474 594 -53 27 -115 55 -137 62 -32 9 -43 18 -47 38 -23 112 -41 168 -79
247 -68 140 -147 233 -288 338 -51 37 -208 110 -282 131 -83 23 -329 29 -410
11z m390 -156 c129 -41 222 -96 315 -190 123 -122 185 -248 209 -423 5 -38 15
-75 21 -82 6 -8 42 -24 78 -36 226 -74 398 -219 492 -413 70 -145 84 -212 84
-381 0 -132 -2 -146 -33 -235 -96 -281 -316 -488 -601 -563 l-85 -22 -1555 0
-1555 0 -65 23 c-198 71 -340 224 -385 413 -73 312 137 628 450 674 75 12 95
38 95 123 0 117 35 207 114 291 89 94 181 131 326 131 114 0 116 1 154 103 33
89 81 160 159 234 155 149 335 222 572 230 145 6 248 -12 360 -61 74 -33 87
-33 132 7 112 98 237 165 358 191 98 22 267 15 360 -14z m-2775 -3013 c49 -26
90 -90 90 -140 0 -45 -37 -113 -73 -136 -70 -43 -136 -39 -194 12 -65 57 -79
124 -40 197 26 50 90 90 142 90 18 0 51 -10 75 -23z m3793 9 c42 -17 93 -76
102 -116 16 -72 -22 -151 -88 -180 -56 -26 -95 -25 -147 3 -50 26 -90 90 -90
142 0 52 40 116 90 142 49 26 87 29 133 9z m-3004 -719 c135 -89 59 -307 -102
-294 -98 8 -167 101 -146 196 11 49 38 82 90 109 54 28 104 25 158 -11z m2255
5 c80 -47 103 -157 49 -230 -38 -50 -70 -67 -132 -67 -48 0 -64 5 -95 29 -48
36 -70 86 -64 147 12 119 138 182 242 121z m-1133 -185 c80 -54 102 -142 54
-222 -57 -98 -198 -101 -270 -6 -30 39 -32 121 -5 169 44 78 150 107 221 59z"/>
</g>
</svg>
