<?xml version="1.0" encoding="UTF-8"?>
<svg id="Layer_2" data-name="Layer 2" xmlns="http://www.w3.org/2000/svg" viewBox="0 0 75 75">
  <defs>
    <style>
      .cls-1 {
        fill: #1a171b;
      }
    </style>
  </defs>
  <g id="Layer_1-2" data-name="Layer 1">
    <g>
      <rect class="cls-1" x="25" y="50" width="8.34" height="8.33"/>
      <rect class="cls-1" x="25" y="58.33" width="8.34" height="8.34"/>
      <rect class="cls-1" x="41.67" y="50" width="8.33" height="8.33"/>
      <rect class="cls-1" x="41.67" y="58.33" width="8.33" height="8.34"/>
      <rect class="cls-1" x="33.34" y="41.67" width="8.33" height="8.33"/>
      <rect class="cls-1" x="25" y="41.67" width="8.34" height="8.33"/>
      <rect class="cls-1" x="41.67" y="41.67" width="8.33" height="8.33"/>
      <rect class="cls-1" x="66.67" y="66.67" width="8.33" height="8.33"/>
      <rect class="cls-1" x="66.67" y="58.33" width="8.33" height="8.34"/>
      <rect class="cls-1" x="66.67" y="50" width="8.33" height="8.33"/>
      <rect class="cls-1" x="66.67" y="41.67" width="8.33" height="8.33"/>
      <rect class="cls-1" x="66.67" y="33.33" width="8.33" height="8.34"/>
      <rect class="cls-1" x="58.34" y="66.67" width="8.33" height="8.33"/>
      <rect class="cls-1" x="58.34" y="25" width="8.33" height="8.33"/>
      <rect class="cls-1" x="50" y="66.67" width="8.34" height="8.33"/>
      <rect class="cls-1" x="50" y="16.67" width="8.34" height="8.33"/>
      <rect class="cls-1" x="41.67" y="66.67" width="8.33" height="8.33"/>
      <rect class="cls-1" x="41.67" y="8.33" width="8.33" height="8.34"/>
      <rect class="cls-1" x="33.34" width="8.33" height="8.33"/>
      <rect class="cls-1" x="25" y="66.67" width="8.34" height="8.33"/>
      <rect class="cls-1" x="25" y="8.33" width="8.34" height="8.34"/>
      <rect class="cls-1" x="16.67" y="66.67" width="8.33" height="8.33"/>
      <rect class="cls-1" x="16.67" y="16.67" width="8.33" height="8.33"/>
      <rect class="cls-1" x="8.34" y="66.67" width="8.33" height="8.33"/>
      <rect class="cls-1" x="8.34" y="25" width="8.33" height="8.33"/>
      <rect class="cls-1" y="66.67" width="8.34" height="8.33"/>
      <rect class="cls-1" y="58.33" width="8.34" height="8.34"/>
      <rect class="cls-1" y="50" width="8.34" height="8.33"/>
      <rect class="cls-1" y="41.67" width="8.34" height="8.33"/>
      <rect class="cls-1" y="33.33" width="8.34" height="8.34"/>
    </g>
  </g>
</svg>