<?xml version="1.0" encoding="UTF-8"?>
<svg id="Layer_2" data-name="Layer 2" xmlns="http://www.w3.org/2000/svg" viewBox="0 0 75 75">
  <g id="Layer_1-2" data-name="Layer 1">
    <g>
      <rect x="41.67" y="66.66" width="8.33" height="8.34"/>
      <rect x="50" y="58.33" width="8.33" height="8.33"/>
      <rect x="58.33" y="50" width="8.34" height="8.33"/>
      <rect x="25" width="8.33" height="8.33"/>
      <rect x="16.67" y="8.33" width="8.33" height="8.33"/>
      <rect x="8.33" y="16.66" width="8.34" height="8.34"/>
      <rect x="66.67" y="41.66" width="8.33" height="8.34"/>
      <rect x="58.33" y="41.66" width="8.34" height="8.34"/>
      <rect x="50" y="41.66" width="8.33" height="8.34"/>
      <rect x="41.67" y="41.66" width="8.33" height="8.34"/>
      <rect x="33.33" y="41.66" width="8.34" height="8.34"/>
      <rect x="25" y="41.66" width="8.33" height="8.34"/>
      <rect y="41.66" width="8.33" height="8.34"/>
      <rect x="16.67" y="41.66" width="8.33" height="8.34"/>
      <rect x="8.33" y="41.66" width="8.34" height="8.34"/>
      <rect x="66.67" y="25" width="8.33" height="8.33"/>
      <rect x="58.33" y="25" width="8.34" height="8.33"/>
      <rect x="50" y="25" width="8.33" height="8.33"/>
      <rect x="41.67" y="25" width="8.33" height="8.33"/>
      <rect x="33.33" y="25" width="8.34" height="8.33"/>
      <rect x="25" y="25" width="8.33" height="8.33"/>
      <rect x="8.33" y="25" width="8.34" height="8.33"/>
      <rect y="25" width="8.33" height="8.33"/>
      <rect x="16.67" y="25" width="8.33" height="8.33"/>
    </g>
  </g>
</svg>